<ttFont>
          <CharString index="0">
            0 callgsubr
            285 -184.02000427246094 148.99000549316406 -227 -4 rrcurveto
            -333.99000549316406 -6 -175 -246 -332 vvcurveto
            -370 181 -217.97999572753906 323.99000549316406 136.99000549316406 173.02000427246094 40.97999572753906 61 75 vhcurveto
            -42 210 callgsubr
            -55.99000549316406 -152 -29 -76 hhcurveto
            -186 -149 -36 callsubr
            268 -12.990005493164062 hvcurveto
            7 0 6 -1 7 vhcurveto
            703 hlineto
            11 51 0 67.02000427246094 86 vvcurveto
            -205.99000549316406 -58 rmoveto
            -502 hlineto
            245.99000549316406 -8 callsubr
            113.00999450683594 -47 callsubr
            136.99000549316406 hhcurveto
            200 36 -169 -163 -10 hvcurveto
            endchar
          </CharString>
          <CharString index="1">
            276.99000549316406 -13 rlineto
            -377 vlineto
            -38.99000549316406 -58 -134 -18 -109 hhcurveto
            -321 -150 274 351.99000549316406 368 -8 callgsubr
            216 265.02000427246094 -12 callsubr
            108.99000549316406 -36 -49.99000549316406 97.02000427246094 hvcurveto
            10 199.99000549316406 rlineto
            26 -133 -65 34 -228 hhcurveto
            -392.99000549316406 -312.02000427246094 -263 -522 -439.99000549316406 255.02000427246094 -328.99000549316406 449.99000549316406 309 116 104.97999572753906 5 88 hvcurveto
            667.0200042724609 return
          </CharString>
          <CharString index="2">
            -33 -66 callgsubr
            -117.99000549316406 -47 -86 hhcurveto
            -150.02000427246094 -59 28 282.00999450683594 hvcurveto
            665 -220 -666.0099945068359 vlineto
            -293 49 -196.97000122070312 290 125.00999450683594 150 -25 callsubr
            57 94 vhcurveto
            -28 160 callsubr
            41 -7.9900054931640625 69 vhcurveto
            84.99000549316406 37 callsubr
            return
          </CharString>
          <CharString index="3">
            rmoveto
            -412 -1 165 -236.99000549316406 418 hhcurveto
            381.00999450683594 182.99000549316406 230.99000549316406 414.99000549316406 hvcurveto
            892 -222 -836 vlineto
            -419 -128.99000549316406 -109.02000427246094 -206 -234 -133 108.00999450683594 420 vhcurveto
            1 836 rlineto
            -223 -889 hlineto
            endchar
          </CharString>
          <CharString index="4">
            rmoveto
            -33.02000427246094 -164 rlineto
            -39 54 153 -41.97999572753906 156 hhcurveto
            246.99000549316406 155 111.97999572753906 207 195 -181 100 -153 61.99000549316406 hvcurveto
            -139 56 -84.99000549316406 50 -77 callsubr
            106 rrcurveto
            74 2 74 48 140 hhcurveto
            106 105 -33.02000427246094 -30 35 hvcurveto
            36 166.02000427246094 rlineto
            19 -34.02000427246094 -116.99000549316406 40 -138.02000427246094 hhcurveto
            -226 -182.99000549316406 -98 -198 -3 hvcurveto
            -2 -191 86 callsubr
            -103.00999450683594 181.99000549316406 -77 rrcurveto
            130 51 callgsubr
            105 -54 -93 vvcurveto
            -89 -72.99000549316406 -52 -134 1 vhcurveto
            -145 2 -144.02000427246094 58 -30.990005493164062 22 rrcurveto
            return
          </CharString>
          <CharString index="5">
            rmoveto
            202 callgsubr
            vlineto
            91.00999450683594 66 114 36.99000549316406 75 3 rrcurveto
            178.02000427246094 10 35 -83.99000549316406 -190.02000427246094 vvcurveto
            -710.9799957275391 220 709.9799957275391 vlineto
            334 -93 119.00999450683594 -246 -6 vhcurveto
            -149 -4.0200042724609375 -163 117 callsubr
            hlineto
            return
          </CharString>
          <CharString index="6">
            rmoveto
            -973.9900054931641 220 38 callgsubr
            282.00999450683594 166 -282.00999450683594 149 vlineto
            145 68 72.00999450683594 95 89 85 callgsubr
            40.97999572753906 vhcurveto
            174 vlineto
            8 -20.990005493164062 48 callsubr
            -11 callsubr
            hhcurveto
            -183 -229.99000549316406 -101.99000549316406 -341 hvcurveto
            -99 vlineto
            -173 189 callgsubr
            173 vlineto
            return
          </CharString>
          <CharString index="7">
            -206.99000549316406 hlineto
            -95.00999450683594 -35 24 86 45 27 44 37 24.990005493164062 102 callgsubr
            39 42 -3.9900054931640625 43 hhcurveto
            258.99000549316406 200 137.99000549316406 252.99000549316406 78.00999450683594 -19 66 -32 53.99000549316406 hvcurveto
            209 hlineto
            return
          </CharString>
          <CharString index="8">
            rmoveto
            -226 -989 -47 -276.99000549316406 -66 278 -291 988 rlineto
            -161 hlineto
            -287 -988 -50 -276.00999450683594 -51 276.00999450683594 -242 988 rlineto
            -228.99000549316406 hlineto
            419 -1537.979995727539 rlineto
            191 hlineto
            293.99000549316406 996.9799957275391 35 182.99000549316406 34 -181.99000549316406 290.02000427246094 -997.9900054931641 rlineto
            217.99000549316406 hlineto
            393.00999450683594 1537.979995727539 rlineto
            -224 hlineto
            endchar
          </CharString>
          <CharString index="9">
            14 -253 -124 225.02000427246094 -651 1005 rlineto
            -204 -79 callsubr
            205 951.9900054931641 hlineto
            -12 264.00999450683594 140 -249.02000427246094 630 -966.9799957275391 rlineto
            1 callgsubr
            -205 return
          </CharString>
          <CharString index="10">
            -15.990005493164062 return
          </CharString>
          <CharString index="11">
            -79 callsubr
            85.00999450683594 vlineto
            109 153 -14 -77 callgsubr
            31 callgsubr
            460 -9.020004272460938 286 310 518.9900054931641 vvcurveto
            463.02000427246094 -233 270.99000549316406 -489 vhcurveto
            -127 -135 -16 -98 hhcurveto
            return
          </CharString>
          <CharString index="12">
            -42 callsubr
            213 callgsubr
            -726 523.0200042724609 479.00999450683594 172 -479.00999450683594 479.99000549316406 653 172 -876.0099945068359 vlineto
            endchar
          </CharString>
          <CharString index="13">
            -37.99000549316406 126.02000427246094 rlineto
            -20.009994506835938 -38.02000427246094 -98 -23 -59 hhcurveto
            -109 -17 18 218.99000549316406 hvcurveto
            577 321.97999572753906 166 -321.97999572753906 260 -132.02000427246094 vlineto
            -28 -91 -20 callgsubr
            -72 -18 -46 -24 -65 -45 -4 -100 -29 rrcurveto
            -119.00999450683594 -50 callgsubr
            -700.9900054931641 vlineto
            return
          </CharString>
          <CharString index="14">
            rmoveto
            45 -83.99000549316406 rlineto
            1023.0200042724609 -76 callsubr
            -775 hlineto
            74 85.00999450683594 760.0200042724609 1181 -46.02000427246094 81 rlineto
            -995.9900054931641 -177.99000549316406 750 hlineto
            -58 -71 -777.0099945068359 -1189.009994506836 rlineto
            return
          </CharString>
          <CharString index="15">
            rmoveto
            -86 -1 -106 5 -69 callgsubr
            15.009994506835938 rrcurveto
            1193 -82 callgsubr
            return
          </CharString>
          <CharString index="16">
            -5 callgsubr
            220.02000427246094 1137.990005493164 -220.02000427246094 vlineto
            return
          </CharString>
          <CharString index="17">
            rmoveto
            67.99000549316406 -117 169 57 callgsubr
            234 130.99000549316406 46 261 rlinecurve
            27 146 -7.9900054931640625 181.99000549316406 199 vvcurveto
            909 -226.02000427246094 -914 vlineto
            -212.99000549316406 1 -209 -32.99000549316406 86 callgsubr
            vhcurveto
            -43 -156.97999572753906 -128.97999572753906 -86.02000427246094 -106 -37.99000549316406 rrcurveto
            endchar
          </CharString>
          <CharString index="18">
            rmoveto
            83.00999450683594 229.99000549316406 -125.00999450683594 36 -80 -221 rlineto
            -14 callgsubr
            51 callgsubr
            -59 7 -63 hhcurveto
            -386 -312 -257.97999572753906 -508.00999450683594 -10.020004272460938 hvcurveto
            -6 -330 134 -266.02000427246094 231.02000427246094 -121 -38 callsubr
            -218.99000549316406 rcurveline
            125.00999450683594 -36 75 185 callsubr
            60.99000549316406 -16.979995727539062 66.00999450683594 25 callsubr
            71 2 rlinecurve
            -75 callgsubr
            7 342 -139 255 -230.02000427246094 114.02000427246094 rrcurveto
            -781.9900054931641 -714.0200042724609 158 callgsubr
            45 41 -6 -12.990005493164062 38 vhcurveto
            -398 -1105 rlineto
            -134 109 -68 196 209 vvcurveto
            460 -603 rmoveto
            -52 -48 -46 callsubr
            16.020004272460938 -43 hvcurveto
            399.00999450683594 1108.990005493164 rlineto
            134 -105 68 -196 -215 vvcurveto
            -402 -181 -215 -277 vhcurveto
            endchar
          </CharString>
          <CharString index="19">
            230 52 -70 -123 -114 -158 -59 -178 -194 -75 72 139 84.99000549316406 36 44 36.99000549316406 32.99000549316406 hvcurveto
            return
          </CharString>
          <CharString index="20">
            -84 -516.9900054931641 150.99000549316406 366 -61 callsubr
            211.00999450683594 -18 callsubr
            442 175 -141 149 return
          </CharString>
          <CharString index="21">
            111 -50 callsubr
            -41 callsubr
            28 261 243.02000427246094 49 18 callsubr
            return
          </CharString>
          <CharString index="22">
            503 0 38 callsubr
            1229 -19 callsubr
            161 callgsubr
            224 -219.52000427246094 561.5200042724609 279 580.9900054931641 -264.00001525878906 223 hintmask 11100100
            1262 38 callsubr
            rmoveto
            169.99000549316406 138 147 265.00999450683594 302 vvcurveto
            448 -293.99000549316406 238 -391 -344 -356 -212 -473.99000549316406 -309 182 -272 141 callgsubr
            -124.00999450683594 vhcurveto
            hintmask 11010100
            -333 hlineto
            1 58 callsubr
            rlineto
            561.0099945068359 151 hlineto
            hintmask 11100100
            -154 106.99000549316406 -187.99000549316406 261 332 vvcurveto
            392.00999450683594 246.99000549316406 140 230 217.99000549316406 243 -144 -388.02000427246094 -332 -151 -261 -165.99000549316406 -106.99000549316406 vhcurveto
            hintmask 11101000
            -151 581 38 callsubr
            vlineto
            hintmask 11100100
            -357.99000549316406 hlineto
            endchar
          </CharString>
          <CharString index="23">
            -86 -58.97999572753906 -52 -86.02000427246094 -2 -75 -37 callgsubr
            -60 16 -67.99000549316406 -41 callsubr
            -42 rrcurveto
            return
          </CharString>
          <CharString index="24">
            171 -97 callsubr
            75 callgsubr
            570.9900054931641 148.99000549316406 508.00999450683594 133 callsubr
            665.9900054931641 1537.990005493164 rmoveto
            -127 -135 -16 -98 hhcurveto
            -112 -653 -128 -149 128 -719.9900054931641 85.00999450683594 hlineto
            109 153 -14 -77 callgsubr
            31 callgsubr
            460 -9.020004272460938 286 310 518.9900054931641 vvcurveto
            463.02000427246094 -233 270.99000549316406 -489 vhcurveto
            11 -1389 rmoveto
            -86 -1 -106 5 -69 callgsubr
            15.009994506835938 rrcurveto
            552 394 149 -394 492.00999450683594 -82 callgsubr
            endchar
          </CharString>
          <CharString index="25">
            -88 -97 callsubr
            155.97999572753906 858.0000152587891 158 hstem
            -35 callsubr
            223 575 223 vstem
            return
          </CharString>
          <CharString index="26">
            -178 82 callgsubr
            371.99000549316406 146 332 -60 callsubr
            return
          </CharString>
          <CharString index="27">
            -14.990005493164062 126 rlineto
            -185 -43 callgsubr
            220 869.9900054931641 hlineto
            44.99000549316406 50 88 49 111 hhcurveto
            94 36 -16 -11.020004272460938 19.990005493164062 hvcurveto
            206 vlineto
            9.020004272460938 -20 callgsubr
            -37 5 -54 hhcurveto
            return
          </CharString>
          <CharString index="28">
            -1521.990005493164 return
          </CharString>
          <CharString index="29">
            268 -97 callsubr
            170.99000549316406 1212.979995727539 170 return
          </CharString>
          <CharString index="30">
            2.9900054931640625 return
          </CharString>
          <CharString index="31">
            174.97999572753906 return
          </CharString>
          <CharString index="32">
            rmoveto
            -234 hlineto
            -331 -660.0099945068359 -36 -105 59 callgsubr
            105 -338 660.0099945068359 rlineto
            -238 hlineto
            501 -928.0099945068359 rlineto
            -593.9799957275391 226 593.9799957275391 vlineto
            493 928.0099945068359 rlineto
            endchar
          </CharString>
          <CharString index="33">
            60 -262 297.97999572753906 rlineto
            -197 hlineto
            -259.00999450683594 -301 return
          </CharString>
          <CharString index="34">
            -42 callsubr
            226 14 callsubr
            vlineto
            return
          </CharString>
          <CharString index="35">
            -78.99000549316406 return
          </CharString>
          <CharString index="36">
            rmoveto
            -185 -50 callsubr
            -85.00999450683594 -53.99000549316406 -51 hvcurveto
            123 -199 -1645.990005493164 220 367 vlineto
            -31 callsubr
            151.97999572753906 rlineto
            -15.970001220703125 47 64.99000549316406 -13 168 callsubr
            hhcurveto
            344.99000549316406 226 258.97999572753906 -64 callsubr
            -66 -14 callgsubr
            37 -42 hvcurveto
            695 -48 callsubr
          </CharString>
          <CharString index="37">
            rmoveto
            -83 -11 callgsubr
            -52 75 83 79 8 callsubr
            78 callgsubr
            -82.99000549316406 -69 -87 vhcurveto
            return
          </CharString>
          <CharString index="38">
            -107 664.9799957275391 162.50999450683594 699.4900054931641 159 hstem
            726.9900054931641 213.99000549316406 vstem
            537.9900054931641 825 rmoveto
            234 150 169 192 215 vvcurveto
            148.99000549316406 -108.00999450683594 155.02000427246094 -253.99000549316406 -189 -151.99000549316406 -100 -92 -63.02000427246094 vhcurveto
            91.00999450683594 -109.02000427246094 rlineto
            91.00999450683594 77 callgsubr
            -47 callsubr
            51 111 hhcurveto
            110 76 51 callgsubr
            -128 -235 -375.00999450683594 -256 -147 149 callsubr
            hvcurveto
            43 -110 rlineto
            747.9900054931641 165 hlineto
            -458 -5 rlineto
            endchar
          </CharString>
          <CharString index="39">
            hstem
            99.97999572753906 225 918.010009765625 179 callsubr
            return
          </CharString>
          <CharString index="40">
            -66 callsubr
            -49 23 vhcurveto
            return
          </CharString>
          <CharString index="41">
            28 -55 callsubr
            -65 callgsubr
            return
          </CharString>
          <CharString index="42">
            -611.9799957275391 -617 rmoveto
            -166 -19 callgsubr
            113.00999450683594 128 return
          </CharString>
          <CharString index="43">
            368.99000549316406 370.02000427246094 -210 174 -239.97999572753906 hvcurveto
            226 -574.0099945068359 rmoveto
            -285.97999572753906 -4 -139.02000427246094 -152 -182.99000549316406 hhcurveto
            -97 return
          </CharString>
          <CharString index="44">
            rmoveto
            -110.97999572753906 hlineto
            -82 -35 callgsubr
            -29 -1 callgsubr
            -47 hvcurveto
            return
          </CharString>
          <CharString index="45">
            -92 rlineto
            -66 callgsubr
            vlineto
            41 -71 callgsubr
            return
          </CharString>
          <CharString index="46">
            172.99000549316406 return
          </CharString>
          <CharString index="47">
            155.99000549316406 return
          </CharString>
          <CharString index="48">
            rmoveto
            -538.9900054931641 -1530 rlineto
            89 callgsubr
            983 -1296.020004272461 rmoveto
            -37 callgsubr
            151 rlineto
            -194 272.02000427246094 hlineto
            -195 -20.009994506835938 -7.9900054931640625 -249 rlineto
            -3 -308 vlineto
            41.99000549316406 69 396 608.0099945068359 -130.99000549316406 77 rlineto
            -68 hlineto
            -482.02000427246094 -811.0099945068359 52.02000427246094 -94 rlineto
            499 hlineto
            -1 -281.97999572753906 rlineto
            204 281.97999572753906 -8 callgsubr
            hlineto
            endchar
          </CharString>
          <CharString index="49">
            -94.99000549316406 return
          </CharString>
          <CharString index="50">
            hstem
            -78 callgsubr
            return
          </CharString>
          <CharString index="51">
            -67 callgsubr
            -52 callsubr
            1137.990005493164 -102 callsubr
            return
          </CharString>
          <CharString index="52">
            90.00999450683594 return
          </CharString>
          <CharString index="53">
            -324 -97 callsubr
            162.97999572753906 847.0000152587891 207 callgsubr
            28 callgsubr
            349.99998474121094 205 vstem
            return
          </CharString>
          <CharString index="54">
            121 callgsubr
            -146 133 -5 223 callgsubr
            115 41 188 138 93 95 rlinecurve
            return
          </CharString>
          <CharString index="55">
            175.97999572753906 return
          </CharString>
          <CharString index="56">
            96.99000549316406 return
          </CharString>
          <CharString index="57">
            -90.00999450683594 return
          </CharString>
          <CharString index="58">
            rmoveto
            523.0200042724609 479.00999450683594 172 -479.00999450683594 479.99000549316406 653 172 -1061 vlineto
            -724.9700012207031 -79 callsubr
            rlineto
            245.97999572753906 hlineto
            182.99000549316406 384.97999572753906 rlineto
            481.02000427246094 -384.97999572753906 213 callgsubr
            -726.0200042724609 hlineto
            -624.9900054931641 376.00999450683594 rmoveto
            391.99000549316406 825 rlineto
            10.020004272460938 -825 -402 hlineto
            endchar
          </CharString>
          <CharString index="59">
            vlineto
            37.99000549316406 48 87 55 109 hhcurveto
            186 104 -127.02000427246094 -274 -31 callsubr
            hvcurveto
            endchar
          </CharString>
          <CharString index="60">
            86.02000427246094 return
          </CharString>
          <CharString index="61">
            7.9900054931640625 return
          </CharString>
          <CharString index="62">
            vstem
            1236.990005493164 110 rmoveto
            -121 215 -274 379.99000549316406 -98 161.02000427246094 539 656 rcurveline
            -263 hlineto
            -603 -764 rlineto
            764 -223 101 callgsubr
            480.99000549316406 vlineto
            190 220 110 -175 169 -235.99000549316406 98 -177 rlinecurve
            35 -11 callsubr
            49 callsubr
            -25.009994506835938 18 -25.990005493164062 rrcurveto
            257 hlineto
            -65 110 rlineto
            return
          </CharString>
          <CharString index="63">
            hstemhm
            110 213.99000549316406 -200 219 -162.010009765625 201 return
          </CharString>
          <CharString index="64">
            hhcurveto
            346 228.99000549316406 261 -64 callsubr
            -71 -14 callgsubr
            57 callgsubr
            -37 hvcurveto
            706 -48 callsubr
          </CharString>
          <CharString index="65">
            rmoveto
            -79 callsubr
            return
          </CharString>
          <CharString index="66">
            72.99000549316406 return
          </CharString>
          <CharString index="67">
            276 0 173.99000549316406 hstem
            54.99000549316406 1465.990005493164 vstem
            54.99000549316406 22 rmoveto
            39 callgsubr
            -22 rlineto
            1436 hlineto
            16 26.990005493164062 -746 1480.990005493164 rlineto
            -1 callgsubr
            hlineto
            -688 -1485.990005493164 rlineto
            1165 152 rmoveto
            -880 hlineto
            428.02000427246094 948.9799957275391 451.99000549316406 -948.9799957275391 rlineto
            endchar
          </CharString>
          <CharString index="68">
            -57 callsubr
            223 return
          </CharString>
          <CharString index="69">
            -79.00999450683594 return
          </CharString>
          <CharString index="70">
            hstemhm
            150.99000549316406 302.97999572753906 -260.99000549316406 220.00999450683594 return
          </CharString>
          <CharString index="71">
            83.99000549316406 return
          </CharString>
          <CharString index="72">
            95.99000549316406 return
          </CharString>
          <CharString index="73">
            -38 callgsubr
            811.989990234375 168.00999450683594 return
          </CharString>
          <CharString index="74">
            -275 662.9900054931641 1025.979995727539 hstem
            467.97999572753906 211 vstem
            467.99000549316406 1425.979995727539 rmoveto
            -32 callgsubr
            40 -121 -47 callsubr
            16 36 17.020004272460938 -36 callsubr
            17.979995727539062 rlinecurve
            endchar
          </CharString>
          <CharString index="75">
            -142 rlineto
            -16 23 70 -12 54 hhcurveto
            116 110 -11 callgsubr
            169 return
          </CharString>
          <CharString index="76">
            -2.9900054931640625 return
          </CharString>
          <CharString index="77">
            174 49 callsubr
            34.02000427246094 -35 callgsubr
            -186 vvcurveto
            -710.9799957275391 220 713.9900054931641 vlineto
            59 -3 52 -6 46 vhcurveto
            87 60.99000549316406 113.00999450683594 38 78 callsubr
            -77 callsubr
            rrcurveto
            176 49 callsubr
            32 -35 callgsubr
            -186 vvcurveto
            -710.9799957275391 220 713.9900054931641 vlineto
            return
          </CharString>
          <CharString index="78">
            -299 82 callgsubr
            835.9799957275391 170 36 callsubr
            vstem
            return
          </CharString>
          <CharString index="79">
            134 callsubr
            -64 76 hhcurveto
            86 74 callgsubr
            76 99 -3 hvcurveto
            81 -77 callgsubr
            -66 callgsubr
            70 -58 callsubr
            hhcurveto
            -83 -80 return
          </CharString>
          <CharString index="80">
            rmoveto
            -1349.979995727539 225 111 callgsubr
            477 172 -1176.990005493164 126 callsubr
            vlineto
            return
          </CharString>
          <CharString index="81">
            hstem
            -1 callsubr
            222 701.989990234375 222 vstem
            return
          </CharString>
          <CharString index="82">
            58.97999572753906 return
          </CharString>
          <CharString index="83">
            -43.99000549316406 return
          </CharString>
          <CharString index="84">
            28 callsubr
            47 hvcurveto
            -86 71 callgsubr
            -61 -55 -72.99000549316406 hhcurveto
            return
          </CharString>
          <CharString index="85">
            -93 callgsubr
            hintmask 00000000
            return
          </CharString>
          <CharString index="86">
            -163 vlineto
            25 callsubr
            14.990005493164062 93 -4 return
          </CharString>
          <CharString index="87">
            125.99000549316406 return
          </CharString>
          <CharString index="88">
            161.99000549316406 return
          </CharString>
          <CharString index="89">
            146.97999572753906 return
          </CharString>
          <CharString index="90">
            -158 -62 callsubr
            57 callgsubr
            120 callsubr
            return
          </CharString>
          <CharString index="91">
            -63 callgsubr
            -44 -25 callsubr
            return
          </CharString>
          <CharString index="92">
            206.99000549316406 return
          </CharString>
          <CharString index="93">
            rmoveto
            -15 callgsubr
            vlineto
            74 -92 rlineto
            141.99000549316406 53 123 174 218.99000549316406 vvcurveto
            116 -51 157 -140 52 vhcurveto
            -139 -131 rlineto
            -63 vlineto
            63 -7 59 -109.97999572753906 -35 callgsubr
            vvcurveto
            -113.99000549316406 -57 -107.00999450683594 -74 -36.99000549316406 vhcurveto
            endchar
          </CharString>
          <CharString index="94">
            -51 callsubr
            220.99000549316406 return
          </CharString>
          <CharString index="95">
            223.99000549316406 return
          </CharString>
          <CharString index="96">
            -61.99000549316406 return
          </CharString>
          <CharString index="97">
            1155.990005493164 return
          </CharString>
          <CharString index="98">
            -33 callgsubr
            -276.00999450683594 129 callsubr
            return
          </CharString>
          <CharString index="99">
            25.990005493164062 return
          </CharString>
          <CharString index="100">
            479 223 callsubr
            374.00001525878906 146 -120.010009765625 140 303 166 -156.989990234375 -60 callsubr
            hstemhm
            93.97999572753906 220.99000549316406 436.00999450683594 225 501.010009765625 58 callgsubr
            hintmask 11001111
            return
          </CharString>
          <CharString index="101">
            -22 974.9900054931641 182 36 callgsubr
            return
          </CharString>
          <CharString index="102">
            75 -41 rlineto
            61.99000549316406 -67 callsubr
            220 callsubr
            79 callgsubr
            return
          </CharString>
          <CharString index="103">
            -56 callgsubr
            -21.990005493164062 161 hstemhm
            return
          </CharString>
          <CharString index="104">
            1293.990005493164 rmoveto
            111 -55 callsubr
            return
          </CharString>
          <CharString index="105">
            192.97999572753906 return
          </CharString>
          <CharString index="106">
            158.99000549316406 return
          </CharString>
          <CharString index="107">
            -88 3.0200042724609375 118 callgsubr
            76 hhcurveto
            86 74 callgsubr
            190 callsubr
            -66 callgsubr
            70 -58 callsubr
            hhcurveto
            -83 -80 -72 callsubr
            177 callgsubr
            endchar
          </CharString>
          <CharString index="108">
            1 rmoveto
            -164 -62.02000427246094 -99.99000549316406 -112.99000549316406 -108.99000549316406 -62.02000427246094 116 141 callgsubr
            165 96 callgsubr
            102.99000549316406 185 callgsubr
            109 96 callgsubr
            -110 -165 vhcurveto
            return
          </CharString>
          <CharString index="109">
            -102.00999450683594 -30.990005493164062 139.02000427246094 -158 hhcurveto
            -107.00999450683594 -128 -81 52 callgsubr
            -47 hvcurveto
            return
          </CharString>
          <CharString index="110">
            -51 callgsubr
            53 callgsubr
            return
          </CharString>
          <CharString index="111">
            -1650.009994506836 rmoveto
            203 callsubr
            77 hhcurveto
            86 78.00999450683594 206 callgsubr
            -2 hvcurveto
            81 -31 callsubr
            -49 70 -95.99000549316406 hhcurveto
            -82 -81 -72 callsubr
            -95 -77 callsubr
            hvcurveto
            return
          </CharString>
          <CharString index="112">
            50.99000549316406 146 467.989990234375 147 -76 144.99000549316406 469.00999450683594 146 hstemhm
            75 -8 callgsubr
            346.989990234375 195 338.010009765625 195.99000549316406 346.00999450683594 -8 callgsubr
            return
          </CharString>
          <CharString index="113">
            hstem
            31 callsubr
            74 callsubr
            505.00999450683594 218.99000549316406 vstem
            return
          </CharString>
          <CharString index="114">
            -6 60 callgsubr
            41 vhcurveto
            174 vlineto
            8 -20.990005493164062 48 callsubr
            -11 callsubr
            hhcurveto
            -183 return
          </CharString>
          <CharString index="115">
            -7 callgsubr
            -58 callsubr
            return
          </CharString>
          <CharString index="116">
            126 callgsubr
            -16 127 -157 231.02000427246094 hhcurveto
            220 125 callsubr
            -149 hlineto
            -24 -37 callgsubr
            -2 -141 -190 hhcurveto
            -190.02000427246094 175 callsubr
            return
          </CharString>
          <CharString index="117">
            499 -661.0200042724609 rmoveto
            -81 -116 56 callsubr
            11.979995727539062 -80 hvcurveto
            500.02000427246094 vlineto
            10 28 123 -77 callsubr
            40 hhcurveto
            206 115 -75 -159.99000549316406 -189 -106 -94 -129 hvcurveto
            return
          </CharString>
          <CharString index="118">
            22 callsubr
            hstem
            81.97999572753906 907.0200042724609 vstem
            return
          </CharString>
          <CharString index="119">
            hstem
            -12 callgsubr
            vstem
            return
          </CharString>
          <CharString index="120">
            211 callgsubr
            -125.99000549316406 -136 -114 -124.99000549316406 rlinecurve
            110.97999572753906 -50 callsubr
            73.02000427246094 28 261 243.02000427246094 49 18 callsubr
            return
          </CharString>
          <CharString index="121">
            -72 callgsubr
            -226 return
          </CharString>
          <CharString index="122">
            8 callgsubr
            hstem
            82 callsubr
            return
          </CharString>
          <CharString index="123">
            -103 -31 136.99000549316406 -161 hhcurveto
            -121 -104 -58 callsubr
            -100 return
          </CharString>
          <CharString index="124">
            1890.979995727539 rmoveto
            -162 547 162 -547 vlineto
            return
          </CharString>
          <CharString index="125">
            -51 callgsubr
            rlinecurve
            return
          </CharString>
          <CharString index="126">
            rmoveto
            -1523 111 vlineto
            -5 71 141 25 callsubr
            115 hhcurveto
            473.99000549316406 141 -8 callgsubr
            275 187 -147.99000549316406 -31 callgsubr
            -186 8 hvcurveto
            return
          </CharString>
          <CharString index="127">
            193 callsubr
            66 -100.99000549316406 237 -216 81 -37 rlinecurve
            return
          </CharString>
          <CharString index="128">
            -222 128.99000549316406 -192 225 4 vhcurveto
            199.99000549316406 5 183 146 267 vvcurveto
            231.02000427246094 -107.00999450683594 32 callsubr
            -246.99000549316406 -6 vhcurveto
            return
          </CharString>
          <CharString index="129">
            -240 0 -34 callsubr
            return
          </CharString>
          <CharString index="130">
            hstem
            -15 callsubr
            179 callsubr
            return
          </CharString>
          <CharString index="131">
            106 384.97999572753906 166 return
          </CharString>
          <CharString index="132">
            -9.009994506835938 return
          </CharString>
          <CharString index="133">
            rmoveto
            101 callgsubr
            682.9900054931641 717.9900054931641 -682.9900054931641 223 -72 callgsubr
            -223 -667 -717.9900054931641 667 -223 vlineto
            endchar
          </CharString>
          <CharString index="134">
            222 callgsubr
            124 -69.02000427246094 74 46.02000427246094 100 115 81 111 rlinecurve
            return
          </CharString>
          <CharString index="135">
            hhcurveto
            106 128 80 114.02000427246094 return
          </CharString>
          <CharString index="136">
            219 -99.989990234375 210 return
          </CharString>
          <CharString index="137">
            -56.02000427246094 249 223 return
          </CharString>
          <CharString index="138">
            124.99000549316406 return
          </CharString>
          <CharString index="139">
            187.99000549316406 return
          </CharString>
          <CharString index="140">
            -61 callgsubr
            75 83 77 62 92 75 -44.02000427246094 144 callsubr
            return
          </CharString>
          <CharString index="141">
            129 callgsubr
            67 callsubr
            return
          </CharString>
          <CharString index="142">
            139.02000427246094 -158 hhcurveto
            -106.99000549316406 -128 -81 52 callgsubr
            -47 hvcurveto
            return
          </CharString>
          <CharString index="143">
            hstem
            -51 callsubr
            74 callsubr
            return
          </CharString>
          <CharString index="144">
            -10 callsubr
            -220 return
          </CharString>
          <CharString index="145">
            153.99000549316406 return
          </CharString>
          <CharString index="146">
            94.99000549316406 return
          </CharString>
          <CharString index="147">
            165 callgsubr
            143.99000549316406 143 callgsubr
            return
          </CharString>
          <CharString index="148">
            49 682.9799957275391 177 hstem
            249.99000549316406 849.9799957275391 vstem
            250 860 rmoveto
            -177 849.9900054931641 177 -849.9900054931641 vlineto
            endchar
          </CharString>
          <CharString index="149">
            -260.00999450683594 rlineto
            return
          </CharString>
          <CharString index="150">
            -643.0099945068359 -430 rlineto
            -184.02000427246094 vlineto
            643.0099945068359 -414.99000549316406 57 -1 callsubr
            -484 352.00999450683594 484 355 return
          </CharString>
          <CharString index="151">
            484 -355 -484 -352.00999450683594 57 -158.99000549316406 643.0099945068359 414.99000549316406 rlineto
            184.02000427246094 vlineto
            -643.0099945068359 430 return
          </CharString>
          <CharString index="152">
            171 -97 callsubr
            75 callgsubr
            1227.990005493164 160.99000549316406 return
          </CharString>
          <CharString index="153">
            -482 963.9900054931641 193 hstem
            224 callgsubr
            vstem
            return
          </CharString>
          <CharString index="154">
            76 -63 callgsubr
            return
          </CharString>
          <CharString index="155">
            -59 -14 callgsubr
            return
          </CharString>
          <CharString index="156">
            8.009994506835938 return
          </CharString>
          <CharString index="157">
            142.99000549316406 return
          </CharString>
          <CharString index="158">
            30.990005493164062 return
          </CharString>
          <CharString index="159">
            -56 callgsubr
            43.99000549316406 65 171 139 vvcurveto
            217 -154 50 callsubr
            -342 vhcurveto
            -150 -100 -14.990005493164062 -100 hhcurveto
            return
          </CharString>
          <CharString index="160">
            1320.979995727539 rmoveto
            268 332 return
          </CharString>
          <CharString index="161">
            74 61 88 -30 callgsubr
            return
          </CharString>
          <CharString index="162">
            24 callsubr
            136 callgsubr
            return
          </CharString>
          <CharString index="163">
            -6.9900054931640625 return
          </CharString>
          <CharString index="164">
            -89.99000549316406 return
          </CharString>
          <CharString index="165">
            -153.99000549316406 return
          </CharString>
          <CharString index="166">
            66.99000549316406 return
          </CharString>
          <CharString index="167">
            rmoveto
            -83 -11 callgsubr
            -52 168 callsubr
            92 callsubr
            -79 -83 -69 -87 vhcurveto
            hintmask 11001000
            return
          </CharString>
          <CharString index="168">
            hmoveto
            48 callgsubr
            -40 58 57 callsubr
            -77 149 callsubr
            -3 callgsubr
            return
          </CharString>
          <CharString index="169">
            1206.990005493164 1530 rmoveto
            -650 -1530 rlineto
            190 hlineto
            650 1530 rlineto
            -190 hlineto
            -1131.990005493164 -455 rmoveto
            return
          </CharString>
          <CharString index="170">
            hstemhm
            -29 callgsubr
            return
          </CharString>
          <CharString index="171">
            -199.99000549316406 -35 -105 return
          </CharString>
          <CharString index="172">
            101.99000549316406 return
          </CharString>
          <CharString index="173">
            100 callsubr
            74 -73 callgsubr
            return
          </CharString>
          <CharString index="174">
            188 callsubr
            144 60 -262 297.97999572753906 rlineto
            -197 hlineto
            return
          </CharString>
          <CharString index="175">
            1588 rmoveto
            -547 -163 547 163 hlineto
            return
          </CharString>
          <CharString index="176">
            -190 -16 130.99000549316406 -187 228 hhcurveto
            return
          </CharString>
          <CharString index="177">
            -68.00999450683594 rlineto
            43 41 return
          </CharString>
          <CharString index="178">
            -57 callsubr
            228 return
          </CharString>
          <CharString index="179">
            1929.990005493164 rmoveto
            return
          </CharString>
          <CharString index="180">
            -107.99000549316406 return
          </CharString>
          <CharString index="181">
            212.99000549316406 return
          </CharString>
          <CharString index="182">
            284.99000549316406 return
          </CharString>
          <CharString index="183">
            286.97999572753906 return
          </CharString>
          <CharString index="184">
            281.99000549316406 return
          </CharString>
          <CharString index="185">
            78.99000549316406 return
          </CharString>
          <CharString index="186">
            118 callgsubr
            76 hhcurveto
            86 79.02000427246094 190 callsubr
            return
          </CharString>
          <CharString index="187">
            rmoveto
            106 callsubr
            -18.990005493164062 -57 return
          </CharString>
          <CharString index="188">
            65 callgsubr
            772.0099945068359 110 callsubr
            return
          </CharString>
          <CharString index="189">
            95 callsubr
            -93 callgsubr
            return
          </CharString>
          <CharString index="190">
            -7 callgsubr
            -95 -79 -83 -69 -87 return
          </CharString>
          <CharString index="191">
            110 -34 rlineto
            65 77 callgsubr
            return
          </CharString>
          <CharString index="192">
            123 rlinecurve
            -157 -135 return
          </CharString>
          <CharString index="193">
            138.02000427246094 return
          </CharString>
          <CharString index="194">
            1631.990005493164 rmoveto
            220 125 callsubr
            -148.99000549316406 hlineto
            -24 -1 -2 -141 -190 hhcurveto
            return
          </CharString>
          <CharString index="195">
            -6 callsubr
            493.02000427246094 -67 callgsubr
            return
          </CharString>
          <CharString index="196">
            hstem
            522.9900054931641 179 callsubr
            return
          </CharString>
          <CharString index="197">
            -146 133 -5 -13 return
          </CharString>
          <CharString index="198">
            -164 -63 -100 113 callgsubr
            -109.02000427246094 -63 116 155 164 63 103 113.00999450683594 vhcurveto
            return
          </CharString>
          <CharString index="199">
            3 callsubr
            -95 return
          </CharString>
          <CharString index="200">
            46.97999572753906 return
          </CharString>
          <CharString index="201">
            57 -221 -174 return
          </CharString>
          <CharString index="202">
            247.99000549316406 return
          </CharString>
          <CharString index="203">
            127 callgsubr
            vhcurveto
            -176 -55 -13.990005493164062 -47 rlineto
            24.990005493164062 -31 30 -92 -79 vvcurveto
            -163 return
          </CharString>
          <CharString index="204">
            145 callsubr
            -145.97999572753906 133 104 callsubr
            -13 -331 -296 return
          </CharString>
          <CharString index="205">
            -77 callsubr
            hvcurveto
            endchar
          </CharString>
          <CharString index="206">
            246 30 callgsubr
            return
          </CharString>
          <CharString index="207">
            1799.990005493164 rmoveto
            -82 63 -51 return
          </CharString>
          <CharString index="208">
            137 129 callgsubr
            return
          </CharString>
          <CharString index="209">
            1481.990005493164 rmoveto
            return
          </CharString>
          <CharString index="210">
            1572.990005493164 rmoveto
            return
          </CharString>
          <CharString index="211">
            -5.0200042724609375 return
          </CharString>
          <CharString index="212">
            223 callgsubr
            142 callgsubr
            145 callsubr
            return
          </CharString>
          <CharString index="213">
            -158 -62 callsubr
            -8 callsubr
            -64 -51 vvcurveto
            -64 return
          </CharString>
          <CharString index="214">
            16 callsubr
            -45.02000427246094 hvcurveto
            return
          </CharString>
          <CharString index="215">
            -126 -56 275.99000549316406 -333 rlineto
            198 hlineto
            return
          </CharString>
          <CharString index="216">
            88.99000549316406 return
          </CharString>
          <CharString index="217">
            214.99000549316406 return
          </CharString>
          <CharString index="218">
            222.99000549316406 return
          </CharString>
          <CharString index="219">
            196.99000549316406 return
          </CharString>
          <CharString index="220">
            4.0200042724609375 return
          </CharString>
          <CharString index="221">
            307.99000549316406 return
          </CharString>
          <CharString index="222">
            809.9799957275391 return
          </CharString>
          <CharString index="223">
            205 callsubr
            78 callgsubr
            -81 -69 callgsubr
            -87 return
          </CharString>
          <CharString index="224">
            -76.99000549316406 -85.00999450683594 -58 -37 callgsubr
            120 rcurveline
            -196.02000427246094 return
          </CharString>
          <CharString index="225">
            177 callsubr
            66 -52 75 return
          </CharString>
          <CharString index="226">
            hstem
            50 callgsubr
            1590 vstem
            return
          </CharString>
          <CharString index="227">
            -64 -51 vvcurveto
            -64 -19 -57 return
          </CharString>
          <CharString index="228">
            58 callgsubr
            vstem
            return
          </CharString>
          <CharString index="229">
            174 callgsubr
            74 callgsubr
            64 92 75 return
          </CharString>
          <CharString index="230">
            1780 rmoveto
            28 -1274 rlineto
            196.02000427246094 hlineto
            24 1274 rlineto
            -248 hlineto
            return
          </CharString>
          <CharString index="231">
            -77 callsubr
            rrcurveto
            174 49 callsubr
            return
          </CharString>
          <CharString index="232">
            139 139 callgsubr
            return
          </CharString>
          <CharString index="233">
            -172 474.99000549316406 return
          </CharString>
          <CharString index="234">
            144.02000427246094 return
          </CharString>
          <CharString index="235">
            -281.99000549316406 return
          </CharString>
          <CharString index="236">
            -332.99000549316406 return
          </CharString>
          <CharString index="237">
            1292.979995727539 388.99000549316406 hstem
            93 callsubr
            742.0099945068359 vstem
            return
          </CharString>
          <CharString index="238">
            173 callsubr
            -95 -72 callsubr
            return
          </CharString>
          <CharString index="239">
            98 432.97999572753906 166 350 167 hstem
            114 callgsubr
            915 vstem
            return
          </CharString>
          <CharString index="240">
            160.99000549316406 hstem
            -25 callgsubr
            vstem
            return
          </CharString>
          <CharString index="241">
            rmoveto
            -88 3.0200042724609375 59 callsubr
            return
          </CharString>
          <CharString index="242">
            hstem
            64 callgsubr
            return
          </CharString>
          <CharString index="243">
            -72 callsubr
            176 callsubr
            return
          </CharString>
          <CharString index="244">
            142 callsubr
            176 callsubr
            return
          </CharString>
          <CharString index="245">
            -69 callgsubr
            -88 -82 63 -51 return
          </CharString>
          <CharString index="246">
            75 -24 callsubr
            return
          </CharString>
          <CharString index="247">
            1346.990005493164 return
          </CharString>
          <CharString index="248">
            325.97999572753906 return
          </CharString>
          <CharString index="249">
            -80.02000427246094 return
          </CharString>
          <CharString index="250">
            -464 -190.99000549316406 141 1642.9800109863281 143.99000549316406 hstem
            return
          </CharString>
          <CharString index="251">
            58 226 callgsubr
            54 callgsubr
            return
          </CharString>
          <CharString index="252">
            41 32 callsubr
            138 93 95 rlinecurve
            return
          </CharString>
          <CharString index="253">
            hstemhm
            -52 callsubr
            -93 callgsubr
            return
          </CharString>
          <CharString index="254">
            -1186 vlineto
            64 callsubr
            return
          </CharString>
          <CharString index="255">
            72 callgsubr
            vhcurveto
            return
          </CharString>
          <CharString index="256">
            -78.00999450683594 return
          </CharString>
          <CharString index="257">
            -118.99000549316406 return
          </CharString>
          <CharString index="258">
            287.97999572753906 return
          </CharString>
          <CharString index="259">
            -67.00999450683594 return
          </CharString>
          <CharString index="260">
            -146.99000549316406 return
          </CharString>
          <CharString index="261">
            -11.979995727539062 return
          </CharString>
          <CharString index="262">
            73.99000549316406 return
          </CharString>
          <CharString index="263">
            55.99000549316406 89.00999450683594 vvcurveto
            109 82 30 80 -1 vhcurveto
            return
          </CharString>
          <CharString index="264">
            28 168 callgsubr
            99 139.02000427246094 vvcurveto
            110.99000549316406 return
          </CharString>
          <CharString index="265">
            -64 -97 callsubr
            -61 callsubr
            838.9799957275391 160 return
          </CharString>
          <CharString index="266">
            hstemhm
            -35 callsubr
            223 return
          </CharString>
          <CharString index="267">
            vlineto
            40 callgsubr
            return
          </CharString>
          <CharString index="268">
            -61 callsubr
            hstem
            return
          </CharString>
          <CharString index="269">
            1684.990005493164 rmoveto
            return
          </CharString>
          <CharString index="270">
            72 callsubr
            99 callsubr
            return
          </CharString>
          <CharString index="271">
            -221 10 callgsubr
            vstem
            return
          </CharString>
          <CharString index="272">
            140 callsubr
            rmoveto
            211 callsubr
            return
          </CharString>
          <CharString index="273">
            333.99000549316406 -99 114.00999450683594 -244 -5 vhcurveto
            endchar
          </CharString>
          <CharString index="274">
            -77.99000549316406 return
          </CharString>
          <CharString index="275">
            75.02000427246094 return
          </CharString>
          <CharString index="276">
            109 callgsubr
            47 hvcurveto
            return
          </CharString>
          <CharString index="277">
            rmoveto
            -33 callgsubr
            return
          </CharString>
          <CharString index="278">
            211 callsubr
            -94.99000549316406 return
          </CharString>
          <CharString index="279">
            1189.990005493164 602.9900054931641 hstem
            189.99000549316406 return
          </CharString>
          <CharString index="280">
            -51 callgsubr
            77 62 92 139 callsubr
            58 return
          </CharString>
          <CharString index="281">
            135 -98 180 callgsubr
            return
          </CharString>
          <CharString index="282">
            162 callgsubr
            -153 hlineto
            return
          </CharString>
          <CharString index="283">
            -69 callgsubr
            -88 vhcurveto
            return
          </CharString>
          <CharString index="284">
            102 callsubr
            -83 return
          </CharString>
          <CharString index="285">
            -72 callgsubr
            rmoveto
            return
          </CharString>
          <CharString index="286">
            -47 callgsubr
            vstem
            return
          </CharString>
          <CharString index="287">
            -1664 220 return
          </CharString>
          <CharString index="288">
            80.02000427246094 return
          </CharString>
          <CharString index="289">
            76.99000549316406 return
          </CharString>
          <CharString index="290">
            -142.99000549316406 return
          </CharString>
          <CharString index="291">
            -156.02000427246094 return
          </CharString>
          <CharString index="292">
            207.99000549316406 return
          </CharString>
          <CharString index="293">
            298.97999572753906 return
          </CharString>
          <CharString index="294">
            -164.99000549316406 return
          </CharString>
          <CharString index="295">
            216 -202 return
          </CharString>
          <CharString index="296">
            1770.990005493164 rmoveto
            85.00999450683594 -68 rlineto
            45 return
          </CharString>
          <CharString index="297">
            206 callgsubr
            -3 hvcurveto
            81 -77 callgsubr
            return
          </CharString>
          <CharString index="298">
            167 callgsubr
            -98 -138 return
          </CharString>
          <CharString index="299">
            135 callsubr
            vstem
            return
          </CharString>
          <CharString index="300">
            -50 callgsubr
            -95 85 callsubr
            return
          </CharString>
          <CharString index="301">
            2 111 callgsubr
            172 return
          </CharString>
          <CharString index="302">
            691 -10 callsubr
            rmoveto
            return
          </CharString>
          <CharString index="303">
            1664.979995727539 rmoveto
            93 -92 return
          </CharString>
          <CharString index="304">
            104.02000427246094 return
          </CharString>
          <CharString index="305">
            -161.02000427246094 return
          </CharString>
          <CharString index="306">
            149.99000549316406 return
          </CharString>
          <CharString index="307">
            244.97999572753906 return
          </CharString>
          <CharString index="308">
            67.00999450683594 return
          </CharString>
          <CharString index="309">
            hhcurveto
            -191 2 178 27 -1 hvcurveto
            -154 hlineto
            return
          </CharString>
          <CharString index="310">
            -88 2 118 callgsubr
            return
          </CharString>
          <CharString index="311">
            -117 rlineto
            -61 vlineto
            42 -25.990005493164062 51 return
          </CharString>
          <CharString index="312">
            83 77 62 92 75 -44 58 -58 callsubr
            return
          </CharString>
          <CharString index="313">
            -24 callsubr
            hvcurveto
            return
          </CharString>
          <CharString index="314">
            -156 135 return
          </CharString>
          <CharString index="315">
            rmoveto
            84 callsubr
            return
          </CharString>
          <CharString index="316">
            hstem
            120 callgsubr
            return
          </CharString>
          <CharString index="317">
            rlineto
            64 47 52 50 93.99000549316406 hhcurveto
            return
          </CharString>
          <CharString index="318">
            83 78 callsubr
            -7 callgsubr
            return
          </CharString>
          <CharString index="319">
            191.010009765625 291 return
          </CharString>
          <CharString index="320">
            972.9799957275391 184 return
          </CharString>
          <CharString index="321">
            -222.99000549316406 return
          </CharString>
          <CharString index="322">
            -16.020004272460938 return
          </CharString>
          <CharString index="323">
            -26.990005493164062 return
          </CharString>
          <CharString index="324">
            184.99000549316406 return
          </CharString>
          <CharString index="325">
            810.9900054931641 return
          </CharString>
          <CharString index="326">
            -120.02000427246094 return
          </CharString>
          <CharString index="327">
            -157.99000549316406 return
          </CharString>
          <CharString index="328">
            233.97999572753906 return
          </CharString>
          <CharString index="329">
            -137 -116 -16 -116 hhcurveto
            -110 return
          </CharString>
          <CharString index="330">
            -97 callsubr
            163.97999572753906 return
          </CharString>
          <CharString index="331">
            -344 -5 callgsubr
            220 return
          </CharString>
          <CharString index="332">
            -57 -20 -24 vhcurveto
            -15 callgsubr
            vlineto
            return
          </CharString>
        <CharString name=".notdef">
          571 0 218.99000549316406 973.989990234375 223 hstem
          115 callgsubr
          229 960.010009765625 227 vstem
          115 callgsubr
          1415.990005493164 rmoveto
          -1415.990005493164 1416.009994506836 1415.990005493164 -1416.009994506836 vlineto
          705 -828.9900054931641 rmoveto
          -347 -368 -128 144 357.99000549316406 342 -358.99000549316406 363.00999450683594 123 31 callsubr
          356.99000549316406 -367.99000549316406 352.00999450683594 366 128 -124 -363.00999450683594 -357.99000549316406 363.00999450683594 -368 -122 -122 -362 368 rlineto
          endchar
        </CharString>
        <CharString name="A">
          55 callsubr
          1145 hmoveto
          -102 callgsubr
        </CharString>
        <CharString name="AE">
          43 callgsubr
          1059.979995727539 -76 callsubr
          -49 callsubr
        </CharString>
        <CharString name="AEacute">
          43 callgsubr
          1380.990005493164 -53 callsubr
          -321 -1672 -49 callsubr
        </CharString>
        <CharString name="Aacute">
          55 callsubr
          1062.990005493164 -53 callsubr
          82 -1846.990005493164 rmoveto
          -102 callgsubr
        </CharString>
        <CharString name="Abreve">
          24 callsubr
          1081 172.99000549316406 136 callgsubr
          701.9900054931641 87 callsubr
          -189.99000549316406 -24 callgsubr
          107 callgsubr
          231 hhcurveto
          443 -1631.990005493164 rmoveto
          -102 callgsubr
        </CharString>
        <CharString name="Acircumflex">
          24 callsubr
          1283 155.99000549316406 136 callgsubr
          701.9900054931641 128 callgsubr
          rmoveto
          216 -202 144 -74 callsubr
          101 callsubr
          rlineto
          443 -1833.979995727539 rmoveto
          -102 callgsubr
        </CharString>
        <CharString name="Adieresis">
          24 callsubr
          1116.010009765625 151 callsubr
          hstem
          305.99000549316406 297 199 297 vstem
          442.97999572753906 -40 callgsubr
          206 -1666.990005493164 rmoveto
          -102 callgsubr
        </CharString>
        <CharString name="Agrave">
          55 callsubr
          738.9799957275391 103 callsubr
          92.02000427246094 62 callgsubr
          76.97999572753906 -87 223 -153 -51 callsubr
          -34 rlinecurve
          406.02000427246094 -1572.990005493164 rmoveto
          -102 callgsubr
        </CharString>
        <CharString name="Amacron">
          24 callsubr
          1178 -19 callsubr
          hstemhm
          430.97999572753906 547 hintmask 00000000
          hintmask 11100000
          977.9799957275391 1890.979995727539 rmoveto
          -547 -162 547 162 hlineto
          215 callgsubr
          -1890.979995727539 rmoveto
          -102 callgsubr
        </CharString>
        <CharString name="Aogonek">
          106 -512 148 748.9799957275391 166 hstem
          910.9900054931641 216 vstem
          1254.990005493164 -363.99000549316406 rmoveto
          -70 -56 18.990005493164062 -47 callsubr
          -77 callgsubr
          hvcurveto
          -2 92 105 -10 callgsubr
          118 66 rrcurveto
          37.99000549316406 hlineto
          -567.9900054931641 1537.990005493164 rlineto
          -215 hlineto
          -582 -1537.990005493164 rlineto
          235.99000549316406 hlineto
          136 384.97999572753906 rlineto
          623 hlineto
          129 -384.97999572753906 rlineto
          31.990005493164062 hlineto
          -120 -61 -148 -112.99000549316406 2 -128 rrcurveto
          -137 2 104 -73 140 hhcurveto
          -36 callsubr
          95 callgsubr
          23 callgsubr
          -44 -50 214 callgsubr
          -803 914.9799957275391 rmoveto
          216 609 43.99000549316406 142 43 -142 205 -609 rlineto
          -508.00999450683594 hlineto
          endchar
        </CharString>
        <CharString name="Aring">
          24 callsubr
          1295 124 hstem
          380.97999572753906 -60 callsubr
          331.00999450683594 154 vstem
          1145 hmoveto
          110 callgsubr
          hlineto
          -538.9900054931641 1459 101 36 -41 callsubr
          80 1 132 rlinecurve
          171 1 -127 92 -195.02000427246094 hhcurveto
          -156 -160.99000549316406 -71 -191 -3.0200042724609375 hvcurveto
          -2 -128 183 callgsubr
          -91 118.99000549316406 -36 -549.9900054931641 -1452.990005493164 rcurveline
          235.99000549316406 hlineto
          136 384.97999572753906 rlineto
          623 hlineto
          129 -384.97999572753906 rlineto
          -446.02000427246094 1845.990005493164 rmoveto
          95 -1 74 -46 -93 vvcurveto
          -106.99000549316406 -70 182 callgsubr
          -99 1 vhcurveto
          -99.99000549316406 2 -62 156 callsubr
          -246.99000549316406 -1295 rmoveto
          216 609 43.99000549316406 142 43 -142 205 -609 rlineto
          -508.00999450683594 hlineto
          endchar
        </CharString>
        <CharString name="Atilde">
          24 callsubr
          1110 -4 callsubr
          29 callgsubr
          hintmask 10110000
          546 1804.979995727539 rmoveto
          hintmask 11010000
          104 51 callsubr
          -144 158 -23 callsubr
          hintmask 10110000
          2 callsubr
          186 callgsubr
          -68 rlineto
          45 41 61.99000549316406 57 72.00999450683594 hhcurveto
          599 -1804.979995727539 rmoveto
          -102 callgsubr
        </CharString>
        <CharString name="B">
          38 -14 -19 callsubr
          555 -1 callsubr
          517.9999847412109 153 callgsubr
          161 callgsubr
          222 511.989990234375 216 -123 -47 callgsubr
          hintmask 11110100
          -78 callgsubr
          1523 19 callsubr
          hintmask 11111000
          52 callsubr
          hintmask 11110100
          -104 1 rlineto
          hintmask 11111000
          10 callsubr
          hintmask 11110100
          2 callgsubr
        </CharString>
        <CharString name="C">
          12 -97 callsubr
          -52 callsubr
          1196.990005493164 181 hstem
          39 callsubr
          220.99000549316406 vstem
          798.9900054931641 1537.990005493164 -96 callgsubr
        </CharString>
        <CharString name="CR">
          -1301 endchar
        </CharString>
        <CharString name="Cacute">
          12 -97 callsubr
          -52 callsubr
          1196.990005493164 181 hstem
          39 callsubr
          220.99000549316406 vstem
          666.9900054931641 -62 callgsubr
          -331 -296 -7 -6 rlinecurve
          132 -127 -96 callgsubr
        </CharString>
        <CharString name="Ccaron">
          12 -97 callsubr
          -52 callsubr
          1196.990005493164 181 132 146 hstem
          39 callsubr
          220.99000549316406 vstem
          451.99000549316406 163 callsubr
          148 callgsubr
          105 callgsubr
          -64 callgsubr
          rlineto
          347 -392 -96 callgsubr
        </CharString>
        <CharString name="Ccedilla">
          12 -463.99000549316406 -60 callsubr
          293.00999450683594 -76 callsubr
          1196.990005493164 181 hstem
          39 callsubr
          220.99000549316406 409.00999450683594 163 vstem
          1186.979995727539 252.99000549316406 rmoveto
          -47 -52.97999572753906 -165 -46 -156 hhcurveto
          -310 -187 252 356 360 189 228.99000549316406 309 228.99000549316406 94 -59 -14.990005493164062 29 hvcurveto
          32 198 rlineto
          13 -54 52 callgsubr
          43.99000549316406 -231 hhcurveto
          -374 -330 -281 -504 -431 243 -297 383.02000427246094 -36.99000549316406 hvcurveto
          8.990005493164062 -34 4 -46 -71 callgsubr
          -66 rrcurveto
          73 callsubr
          -7 51 callgsubr
          -42 -65 hhcurveto
          154 callgsubr
          -34 24 callgsubr
          184 callgsubr
          -32 callsubr
          39 callgsubr
          hvcurveto
          6 84.00999450683594 25 callsubr
          77 -24.990005493164062 53 141 callgsubr
          -46 callsubr
          94 39.99000549316406 78 callsubr
          31.009994506835938 -1 188.99000549316406 rcurveline
          endchar
        </CharString>
        <CharString name="Ccircumflex">
          12 -97 callsubr
          -52 callsubr
          1196.990005493164 181 296 160 callgsubr
          39 callsubr
          220.99000549316406 vstem
          436.97999572753906 1688.990005493164 rmoveto
          137 34 callsubr
          -259.00999450683594 -301 rlineto
          362 -151 -96 callgsubr
        </CharString>
        <CharString name="Cdotaccent">
          12 -97 callsubr
          -52 callsubr
          1196.990005493164 181 131.010009765625 76 callsubr
          hstem
          39 callsubr
          220.99000549316406 330.99998474121094 299 vstem
          646.9799957275391 -61 callgsubr
          75 83 77 62 92 75 -44 144 callsubr
          152 -264 -96 callgsubr
        </CharString>
        <CharString name="D">
          45 callsubr
          hstem
          -25 callgsubr
          vstem
          147 callgsubr
          -96 callsubr
          -112 hlineto
          483 -1373 11 callgsubr
        </CharString>
        <CharString name="Dcaron">
          45 callsubr
          131.99998474121094 146 hstem
          -25 callgsubr
          vstem
          389 72 callsubr
          163 callgsubr
          148 callgsubr
          -120 -64 callgsubr
          rlineto
          -195 -408 rmoveto
          -96 callsubr
          -112 hlineto
          483 -1373 11 callgsubr
        </CharString>
        <CharString name="Dcroat">
          -83 callsubr
        </CharString>
        <CharString name="E">
          -84 0 -81 callgsubr
          70 callgsubr
          193.99000549316406 1521.990005493164 -95 callsubr
        </CharString>
        <CharString name="Eacute">
          -84 0 -81 callgsubr
          70 callgsubr
          552 -62 callgsubr
          -331.02000427246094 -296 56 callsubr
          -6 rlinecurve
          -358.00999450683594 183 callsubr
          -95 callsubr
        </CharString>
        <CharString name="Ebreve">
          -84 0 -81 callgsubr
          110 172.99000549316406 70 callgsubr
          337.97999572753906 9 callsubr
          -144 -448 -95 callsubr
        </CharString>
        <CharString name="Ecaron">
          -84 0 -81 callgsubr
          148 146 70 callgsubr
          337 19 callgsubr
          -143 -408 -95 callsubr
        </CharString>
        <CharString name="Ecircumflex">
          -84 0 -81 callgsubr
          312 155.99000549316406 70 callgsubr
          321.97999572753906 40 callsubr
          -128 -167 -95 callsubr
        </CharString>
        <CharString name="Edieresis">
          -84 0 -81 callgsubr
          145.010009765625 151 callsubr
          161 callgsubr
          223 -133 175 callgsubr
          hintmask 00000000
          hintmask 11110110
          284 25 callgsubr
          495.99000549316406 hmoveto
          -82 63.02000427246094 -51 74 -45 callgsubr
          -72 callsubr
          137 callsubr
          hintmask 11101000
          -586 -278 -95 callsubr
        </CharString>
        <CharString name="Edotaccent">
          -84 0 -81 callgsubr
          147.010009765625 76 callsubr
          -39 callsubr
          114.989990234375 299 vstem
          531.9900054931641 33 callsubr
          -338 -280 -95 callsubr
        </CharString>
        <CharString name="Egrave">
          -84 0 -81 callgsubr
          70 callgsubr
          716.9799957275391 20 callgsubr
          -523 -51 -95 callsubr
        </CharString>
        <CharString name="Emacron">
          -84 0 -81 callgsubr
          207 -19 callsubr
          161 callgsubr
          223 -8.010009765625 547 hintmask 00000000
          hintmask 11110100
          408.99000549316406 17 callsubr
          hintmask 11111000
          -215 -368.99000549316406 -95 callsubr
        </CharString>
        <CharString name="Eng">
          283 -405.99000549316406 1927.979995727539 -57 callsubr
          218 758.989990234375 219 vstem
          1390 538.9900054931641 rmoveto
          983 -219.02000427246094 -981 vlineto
          15.020004272460938 -240 -111 207 -677.0099945068359 1014 rlineto
          -205 hlineto
          2 -79 callsubr
          rlineto
          217 954.9799957275391 hlineto
          -10.020004272460938 239 123 -217.99000549316406 628 -931 rlineto
          -140 -215 -157 -170.99000549316406 94 callgsubr
          vhcurveto
          57 -105 211 27 220 callgsubr
          160 56.02000427246094 272.97999572753906 rlinecurve
          29 136 -5 162 187 vvcurveto
          endchar
        </CharString>
        <CharString name="Eogonek">
          -84 -512 148 364 -81 callgsubr
          -39 callsubr
          240 200 callgsubr
          vstem
          1093.979995727539 hmoveto
          49 -76 callsubr
          -726 523.0200042724609 479.00999450683594 172 -479.00999450683594 479.99000549316406 653 172 -876.0099945068359 -79 callsubr
          727 hlineto
          -147 -11 callsubr
          150 callsubr
          -122 2 -128 rrcurveto
          -137 -24 callgsubr
          104 -63 91 callgsubr
          -44 -49.99000549316406 154 callsubr
          -45.02000427246094 hhcurveto
          -70 -55.99000549316406 18.990005493164062 -47 callsubr
          -2 hvcurveto
          -77 callgsubr
          92 105 -10 callgsubr
          117.99000549316406 66 rrcurveto
          endchar
        </CharString>
        <CharString name="Eth">
          -83 callsubr
        </CharString>
        <CharString name="Euro">
          204 -28 -38 callgsubr
          379 50 callsubr
          229.00999450683594 50 callsubr
          345.00999450683594 166.99000549316406 hstem
          305.99000549316406 242.99000549316406 vstem
          1310.990005493164 76 callgsubr
          rmoveto
          -52 -72.99000549316406 -138.02000427246094 -41 -145 hhcurveto
          -245 -104.99000549316406 157 222 -40.02000427246094 hvcurveto
          502 50 callsubr
          -518 hlineto
          -31 callsubr
          42 -1 43.99000549316406 0 44 0 34 1 32.99000549316406 32.02000427246094 flex1
          552.02001953125 0.0199737548828125 rlineto
          50 callsubr
          -529 vlineto
          57 226 141 120.02000427246094 191 -1 181 -1 68.00999450683594 -25 75.99000549316406 -41.99000549316406 53 174 rcurveline
          -82 18.990005493164062 -75.99000549316406 50 -214.02000427246094 -8 -315.97999572753906 -12 -224 -181.99000549316406 -83.99000549316406 -318.02000427246094 rrcurveto
          -197.02000427246094 183 callsubr
          170 hlineto
          -7 -52 -31 callsubr
          -54 -57 vvcurveto
          -22 1 -22.020004272460938 1 -22 vhcurveto
          -194 183 callsubr
          209 hlineto
          -328.00999450683594 59 203 -210.97999572753906 340.99000549316406 hhcurveto
          294.00999450683594 63 155 callsubr
          -14 callgsubr
          88 hvcurveto
          -60 165 rlineto
          endchar
        </CharString>
        <CharString name="F">
          144 callgsubr
          -57 callsubr
          224 vstem
          193.99000549316406 1521.990005493164 67 callgsubr
        </CharString>
        <CharString name="G">
          -87 callgsubr
          hstem
          81 callsubr
          vstem
          825 761 rmoveto
          -160 vlineto
          -106 callsubr
          -491.99000549316406 vlineto
          endchar
        </CharString>
        <CharString name="Gbreve">
          -87 callgsubr
          94.00999450683594 161 callsubr
          81 callsubr
          vstem
          806.9900054931641 87 callsubr
          -190 2 107 callgsubr
          230.99000549316406 hhcurveto
          18 -870.9900054931641 rmoveto
          -160 vlineto
          -106 callsubr
          -491.99000549316406 vlineto
          endchar
        </CharString>
        <CharString name="Gcaron">
          -87 callgsubr
          132.00999450683594 146 hstem
          81 callsubr
          vstem
          907 201 callgsubr
          rmoveto
          148 callgsubr
          105 callgsubr
          -64 callgsubr
          163 callgsubr
          -82 -908.9900054931641 rmoveto
          -160 vlineto
          -106 callsubr
          -491.99000549316406 vlineto
          endchar
        </CharString>
        <CharString name="Gcircumflex">
          -87 callgsubr
          296.00999450683594 160 callgsubr
          81 callsubr
          vstem
          806.9900054931641 128 callgsubr
          rmoveto
          216 -202 144 -74 callsubr
          101 callsubr
          rlineto
          18 -1072.990005493164 rmoveto
          -160 vlineto
          -106 callsubr
          -491.99000549316406 vlineto
          endchar
        </CharString>
        <CharString name="Gcommaaccent">
          -87 callgsubr
          hstem
          65 callgsubr
          426.02000427246094 32 callsubr
          157.99998474121094 110 callsubr
          vstem
          825 761 rmoveto
          -160 vlineto
          -106 callsubr
          -491.99000549316406 vlineto
          22 -843 rmoveto
          -17 callsubr
          -20.009994506835938 -24 vhcurveto
          -15 callgsubr
          vlineto
          75 -41 rlineto
          96 callgsubr
          157 callsubr
          -47.97999572753906 78 -49 23 vhcurveto
          endchar
        </CharString>
        <CharString name="Gdotaccent">
          -87 callgsubr
          131.02000427246094 76 callsubr
          hstem
          65 callgsubr
          329.00999450683594 299 144 110 callsubr
          vstem
          797.9799957275391 55 callgsubr
          217 callgsubr
          -908 rmoveto
          -160 vlineto
          -106 callsubr
          -491.99000549316406 vlineto
          endchar
        </CharString>
        <CharString name="Gtilde">
          -87 callgsubr
          123.00999450683594 -4 callsubr
          81 callsubr
          hintmask 11101110
          651 1804.979995727539 rmoveto
          hintmask 11110110
          104 51 callsubr
          -144 158 -23 callsubr
          hintmask 11101110
          -102.00999450683594 -30.990005493164062 139.02000427246094 -158 hhcurveto
          -107 -128 -81 52 callgsubr
          -47 hvcurveto
          186 callgsubr
          -68 rlineto
          45 41 62 57 72 hhcurveto
          174 -1043.990005493164 rmoveto
          -160 vlineto
          -106 callsubr
          -491.99000549316406 vlineto
          endchar
        </CharString>
        <CharString name="H">
          251 682.9799957275391 172 -39 callsubr
          717.989990234375 223 vstem
          193.99000549316406 1521.990005493164 26 callsubr
        </CharString>
        <CharString name="Hbar">
          262 673.9900054931641 170.99000549316406 219.99998474121094 142 -39 callsubr
          729 111 callsubr
          vstem
          1558 1206.990005493164 rmoveto
          -189 315 214 callsubr
          -315 -729 315 -223 -315 -186 -142 186 -1064.979995727539 223 674 729 -674 111 callsubr
          1064.979995727539 189 142 hlineto
          -412 -362 rmoveto
          -729 220 729 -220 hlineto
          endchar
        </CharString>
        <CharString name="Hcircumflex">
          251 682.9799957275391 172 979 155.99000549316406 -39 callsubr
          717.989990234375 223 vstem
          418 103 callgsubr
          136.99000549316406 34 callsubr
          218 callgsubr
          -301 rlineto
          -224 -167 26 callsubr
        </CharString>
        <CharString name="I">
          -661 0 -72 callgsubr
          23 callsubr
          1 callgsubr
          -73 callsubr
          endchar
        </CharString>
        <CharString name="I.uc">
          -49 callgsubr
        </CharString>
        <CharString name="IJ">
          52 -332 1853.990005493164 hstem
          -15 callsubr
          -47 callgsubr
          474.99998474121094 226.00999450683594 vstem
          1 callgsubr
          -73 callsubr
          391 -1736.990005493164 -90 callsubr
        </CharString>
        <CharString name="IJ_acutecomb">
          52 -332 2311.990005493164 hstem
          -15 callsubr
          -47 callgsubr
          474.99998474121094 226.00999450683594 33 callgsubr
          701.0099945068359 -10 rmoveto
          93 -92 115 41 188 138 93 95 rlinecurve
          90 callsubr
          -331 -296 -7 -6 rlinecurve
          -687 -133 -73 callsubr
          391 -1736.990005493164 -90 callsubr
        </CharString>
        <CharString name="Iacute">
          -661 0 1979.979995727539 hstem
          206.99000549316406 225.99000549316406 33 callgsubr
          39 callgsubr
          183 callsubr
          -73 callsubr
          endchar
        </CharString>
        <CharString name="Ibreve">
          -661 1631.979995727539 172.99000549316406 23 callsubr
          -20.990005493164062 126 callgsubr
          215 callsubr
          126.99000549316406 -157 231 hhcurveto
          220.02000427246094 139 63 callgsubr
          -152.97999572753906 hlineto
          115 callgsubr
          -448 -73 callsubr
          endchar
        </CharString>
        <CharString name="Icircumflex">
          -661 1833.979995727539 155.99000549316406 23 callsubr
          -37 103 callgsubr
          136.99000549316406 34 callsubr
          -258.97999572753906 -301 rlineto
          244 -167 -73 callsubr
          endchar
        </CharString>
        <CharString name="Idieresis">
          -661 1666.990005493164 151 callsubr
          hstemhm
          -75 296.97999572753906 -14.989990234375 -47 callgsubr
          -12.000015258789062 297 hintmask 00000000
          hintmask 11010000
          -75 100 callsubr
          155 callsubr
          -45 callgsubr
          -80 136 callsubr
          495.97999572753906 hmoveto
          -82 63 -51 74.02000427246094 -45 callgsubr
          -38 callsubr
          -80 176 callsubr
          hintmask 10100000
          -214 -278 -73 callsubr
          endchar
        </CharString>
        <CharString name="Idotaccent">
          -49 callgsubr
        </CharString>
        <CharString name="Igrave">
          -661 0 1979.979995727539 23 callsubr
          357.99000549316406 103 callsubr
          92 119 callgsubr
          -145.97999572753906 -133 76.97999572753906 -87 223 -153 97 -34 rlinecurve
          -151 -51 -73 callsubr
          endchar
        </CharString>
        <CharString name="Imacron">
          -661 1728.979995727539 161.99000549316406 23 callsubr
          -18 callgsubr
          17 callsubr
          157 -368.99000549316406 -73 callsubr
          endchar
        </CharString>
        <CharString name="Iogonek">
          -661 -512 148 hstemhm
          42.99000549316406 216 -52 -47 callgsubr
          hintmask 00000000
          hintmask 11000000
          396.97999572753906 -363.99000549316406 rmoveto
          -70 -19 callgsubr
          203 callgsubr
          -2 97 47 84.99000549316406 104 66 rrcurveto
          hintmask 10100000
          25 14 callsubr
          -79 callsubr
          hlineto
          hintmask 11000000
          34 133 callgsubr
          2 114 -83.00999450683594 150 hhcurveto
          84.00999450683594 86 23 callgsubr
          -24 callsubr
          -50 154 callsubr
          -45.02000427246094 hhcurveto
          endchar
        </CharString>
        <CharString name="Itilde">
          -661 1660.979995727539 -4 callsubr
          -15 callsubr
          -47 callgsubr
          hintmask 01100000
          -95 1770.990005493164 rmoveto
          186 callgsubr
          -68 rlineto
          45 40.97999572753906 62 57 -30 callgsubr
          hhcurveto
          hintmask 10100000
          104 31.009994506835938 109 callgsubr
          93 callsubr
          hvcurveto
          -86 71 callgsubr
          -22 callgsubr
          -55 -73.00999450683594 hhcurveto
          hintmask 01100000
          -101.99000549316406 -31 35 callsubr
          302 -249 -73 callsubr
          endchar
        </CharString>
        <CharString name="J">
          -588 -332 1853.990005493164 hstem
          267.97999572753906 226.00999450683594 vstem
          -42 -215 -90 callsubr
        </CharString>
        <CharString name="Jcircumflex">
          -588 146 callgsubr
          267.97999572753906 226.00999450683594 vstem
          17.979995727539062 1688.990005493164 rmoveto
          137 34 callsubr
          -259.00999450683594 -301 rlineto
          -59.97999572753906 -1903.979995727539 -90 callsubr
        </CharString>
        <CharString name="K">
          70 0 -72 callgsubr
          hstem
          193.99000549316406 223 -45 callsubr
          endchar
        </CharString>
        <CharString name="Kcommaaccent">
          70 -560 2082 -39 callsubr
          227 188 -45 callsubr
          -502 -192 rmoveto
          66 callgsubr
          -15 callgsubr
          vlineto
          75 -41 rlineto
          62 -67 callsubr
          endchar
        </CharString>
        <CharString name="L">
          164 callsubr
          193.99000549316406 1521.990005493164 108 callgsubr
        </CharString>
        <CharString name="Lacute">
          164 callsubr
          177.99000549316406 -62 callgsubr
          -331 -296 -7 -6 rlinecurve
          16 183 callsubr
          108 callgsubr
        </CharString>
        <CharString name="Lcaron">
          -221 10 callgsubr
          353.989990234375 112 callsubr
          vstem
          735.9900054931641 93 callgsubr
          61.99000549316406 179 callgsubr
          -18 -51 callsubr
          -24 callsubr
          96 callsubr
          -27 -48 -21.009994506835938 -76 vhcurveto
          8 -28 rlineto
          -542 454 108 callgsubr
        </CharString>
        <CharString name="Lcommaaccent">
          -221 10 callgsubr
          132.989990234375 188 vstem
          193.99000549316406 1521.990005493164 -58 callgsubr
          322 -2040.990005493164 rmoveto
          -5 callsubr
          -15 callgsubr
          vlineto
          endchar
        </CharString>
        <CharString name="Ldot">
          56 104 callgsubr
          509.010009765625 326 71 callsubr
          483 114 callsubr
          vstem
          193.99000549316406 1521.990005493164 -58 callgsubr
          711 -686 rmoveto
          -88 -77 callsubr
          201 callsubr
          -64 76 hhcurveto
          86 79.02000427246094 76 99 -3.0200042724609375 hvcurveto
          81 -2 -49.99000549316406 70 -95.00999450683594 hhcurveto
          -82.99000549316406 142 callsubr
          78 callgsubr
          -58 callsubr
          2 hvcurveto
          endchar
        </CharString>
        <CharString name="Lslash">
          164 callsubr
          421.99000549316406 -76 callsubr
          rmoveto
          522.0200042724609 vlineto
          443 162 -53 138 -390 -144 rlineto
          669 -228 -753.0099945068359 vlineto
          -176 -64.97999572753906 53 -136 123 45 rlineto
          -612.9900054931641 832 -76 callsubr
          -604 vlineto
          endchar
        </CharString>
        <CharString name="M">
          622 1354.990005493164 166.99000549316406 hstem
          133.97999572753906 1656.009994506836 vstem
          151 callsubr
          1521.990005493164 -57 callgsubr
        </CharString>
        <CharString name="N">
          255 0 -72 callgsubr
          192 callsubr
          1157.979995727539 178 callsubr
          -977 vlineto
          -98 callsubr
          hlineto
          endchar
        </CharString>
        <CharString name="NULL">
          -1301 endchar
        </CharString>
        <CharString name="Nacute">
          255 0 1979.979995727539 192 callsubr
          1152.979995727539 121 callgsubr
          -146 133 -5 105 callsubr
          5 -325 rmoveto
          -977 vlineto
          -98 callsubr
          hlineto
          endchar
        </CharString>
        <CharString name="Ncaron">
          255 201 callgsubr
          146 192 callsubr
          891.9900054931641 201 callgsubr
          rmoveto
          242 263 86 callgsubr
          -64 callgsubr
          99 callsubr
          266 -147.99000549316406 rmoveto
          -977 vlineto
          -98 callsubr
          hlineto
          endchar
        </CharString>
        <CharString name="Ncommaaccent">
          255 -560 2082 hstem
          -2 callsubr
          205 297 188 275 205 vstem
          1157.979995727539 178 callsubr
          -977 vlineto
          -98 callsubr
          hlineto
          -372 -1603.990005493164 rmoveto
          -157.99000549316406 79 callgsubr
          -15 callgsubr
          vlineto
          75 -41 rlineto
          62 -67 callsubr
          endchar
        </CharString>
        <CharString name="Ntilde">
          255 1660.979995727539 -4 callsubr
          64 callgsubr
          hintmask 01110000
          635.9900054931641 1804.979995727539 rmoveto
          hintmask 10110000
          104 31.009994506835938 44 callgsubr
          hintmask 01110000
          -101.99000549316406 154 callgsubr
          35 callsubr
          84.99000549316406 -68 rlineto
          45 41 62 57 -30 callgsubr
          hhcurveto
          522 -282.99000549316406 rmoveto
          -977 vlineto
          -98 callsubr
          hlineto
          endchar
        </CharString>
        <CharString name="O">
          -76 callgsubr
          99.97999572753906 771.9900054931641 -105 callgsubr
        </CharString>
        <CharString name="OE">
          762 -97 callsubr
          167.97999572753906 -151.989990234375 -81 callgsubr
          -153 169 hstemhm
          99.97999572753906 224 716.010009765625 111 callsubr
          hintmask 01110110
          1262.979995727539 -76 callsubr
          rmoveto
          523.0200042724609 479 172 -479 479.99000549316406 653 172 -876 -24 vlineto
          hintmask 10101110
          -78 34 -89 8 -68 -2 -409 -13.990005493164062 -285.97999572753906 -253 -10.020004272460938 -502 -71 callgsubr
          -454.99000549316406 263.97999572753906 -338 420 49 callsubr
          113.00999450683594 -24 callgsubr
          80 25 72 40 rrcurveto
          hintmask 01110110
          -51 213 callgsubr
          -726.0200042724609 vlineto
          hintmask 10101110
          -478.99000549316406 -23 rmoveto
          -302 -158 285 321 425 226 186 250 99 78 -19 -40.99000549316406 63 hvcurveto
          -1077 vlineto
          -54 -69 -87 -15 callgsubr
          -100 hhcurveto
          endchar
        </CharString>
        <CharString name="Oacute">
          -76 callgsubr
          680 -62 callgsubr
          -331.02000427246094 -296 56 callsubr
          -6 rlinecurve
          -580.0200042724609 -892.9900054931641 -105 callgsubr
        </CharString>
        <CharString name="Obreve">
          -78 callsubr
          94 172.99000549316406 -68 callsubr
          465.97999572753906 9 callsubr
          -366 -1198 -105 callgsubr
        </CharString>
        <CharString name="Ocircumflex">
          -78 callsubr
          296 155.99000549316406 -68 callsubr
          449.99000549316406 40 callsubr
          -350 -917 -105 callgsubr
        </CharString>
        <CharString name="Odieresis">
          -78 callsubr
          129.010009765625 151 callsubr
          hstemhm
          99.97999572753906 225 87.010009765625 175 callgsubr
          38.010009765625 -47 callgsubr
          hintmask 11111010
          412 25 callgsubr
          hintmask 11111110
          495.99000549316406 hmoveto
          -82 63.02000427246094 -51 74 -45 callgsubr
          -72 callsubr
          137 callsubr
          -808 -1028 0 callgsubr
          -461 266 -335.99000549316406 421 9.020004272460938 rrcurveto
          hintmask 11111010
          -75 callgsubr
          rrcurveto
          472 9 -266 304.99000549316406 -403.99000549316406 hhcurveto
          hintmask 11111110
          -386 -312 -257.97999572753906 -508.00999450683594 -10.020004272460938 hvcurveto
          hintmask 11111010
          1143.009994506836 hmoveto
          -402 -181 -215 -277 -304 -156 287 315.99000549316406 417.00999450683594 218.99000549316406 192.99000549316406 257 292 150 -276.99000549316406 -319 vhcurveto
          endchar
        </CharString>
        <CharString name="Ograve">
          -76 callgsubr
          844.9799957275391 20 callgsubr
          -745 -801 -105 callgsubr
        </CharString>
        <CharString name="Ohungarumlaut">
          -76 callgsubr
          448.97999572753906 27 callsubr
          -172 87 -5 -13 -195 98 callgsubr
          78 46.02000427246094 105 115 71 131 callgsubr
          -817.0099945068359 -938 -105 callgsubr
        </CharString>
        <CharString name="Omacron">
          -78 callsubr
          191 207 callgsubr
          99.97999572753906 225 212 547 159.010009765625 179 callsubr
          536.9900054931641 17 callsubr
          -437 -1118.990005493164 -105 callgsubr
        </CharString>
        <CharString name="Oslash">
          -76 callgsubr
          1106.979995727539 1472 -89 callsubr
        </CharString>
        <CharString name="Oslashacute">
          -76 callgsubr
          1068.990005493164 -53 callsubr
          37.99000549316406 -374.99000549316406 -89 callsubr
        </CharString>
        <CharString name="Otilde">
          -78 callsubr
          123 -4 callsubr
          99.97999572753906 225 918.010009765625 -47 callgsubr
          hintmask 11011100
          391.99000549316406 189 callsubr
          40.99000549316406 62 57 -30 callgsubr
          hhcurveto
          hintmask 11101100
          197 callsubr
          51 callsubr
          -144 158 -23 callsubr
          hintmask 11011100
          2 callsubr
          -292 -999 -105 callgsubr
        </CharString>
        <CharString name="P">
          -31 521.9900054931641 164 692 -38 callgsubr
          -39 callsubr
          556.989990234375 222 vstem
          193.99000549316406 1521.990005493164 -52 callgsubr
        </CharString>
        <CharString name="Q">
          268 -293.99000549316406 180.97999572753906 97.02000427246094 170.99000549316406 1212.979995727539 170 -68 callsubr
          1326.979995727539 -113 rmoveto
          -128.99000549316406 -133.02000427246094 36 89.97999572753906 -86 hvcurveto
          285 82 197 251 8 415.00999450683594 rrcurveto
          472 9 -266 304.99000549316406 -403.99000549316406 hhcurveto
          -386 -312 -257.97999572753906 -508.00999450683594 -10.020004272460938 102 callgsubr
          -457.00999450683594 261 -333.99000549316406 415.00999450683594 3.0200042724609375 rrcurveto
          -225.02000427246094 168 182 -52.99000549316406 210.99000549316406 hhcurveto
          76 76 18.990005493164062 21.020004272460938 31 hvcurveto
          -38 callgsubr
          vlineto
          -16 -46 -86.02000427246094 -3 -52 hhcurveto
          -1001.9900054931641 870.9900054931641 158 callgsubr
          292 150 -276.99000549316406 -319 -402 -181 -215 -277 -304 -156 287 315.99000549316406 vhcurveto
          endchar
        </CharString>
        <CharString name="R">
          56 callgsubr
          552 228 vstem
          1245 111.97999572753906 -101 callgsubr
          endchar
        </CharString>
        <CharString name="Racute">
          56 callgsubr
          552 228 vstem
          1070.979995727539 121 callgsubr
          -145.99000549316406 133 104 callsubr
          105 callsubr
          174.02000427246094 -1735 -101 callgsubr
          endchar
        </CharString>
        <CharString name="Rcaron">
          66 647.9799957275391 152 574 164 132 146 -39 callsubr
          552 228 vstem
          115 callsubr
          201 callgsubr
          rmoveto
          242.02000427246094 263 219 callsubr
          -64 callgsubr
          99 callsubr
          435.02000427246094 -1558 -101 callgsubr
          endchar
        </CharString>
        <CharString name="Rcommaaccent">
          56 callgsubr
          223.989990234375 188 140.010009765625 228 vstem
          1245 111.97999572753906 -101 callgsubr
          315 -887.9900054931641 80 callsubr
          -20.009994506835938 -24 vhcurveto
          -15 callgsubr
          vlineto
          75 -41 rlineto
          61.99000549316406 92 callgsubr
        </CharString>
        <CharString name="S">
          -169 -16 callgsubr
          6 callsubr
          128 70.97999572753906 -103 callgsubr
        </CharString>
        <CharString name="Sacute">
          -169 -16 callgsubr
          6 callsubr
          474.99000549316406 -62 callgsubr
          -331 -296 -7 -6 rlinecurve
          -346.99000549316406 -1594 -103 callgsubr
        </CharString>
        <CharString name="Scaron">
          -169 -16 callgsubr
          132 146 6 callsubr
          259.99000549316406 163 callsubr
          148 callgsubr
          105 callgsubr
          -64 callgsubr
          rlineto
          -131.99000549316406 -1859.009994506836 -103 callgsubr
        </CharString>
        <CharString name="Scedilla">
          -169 -463.99000549316406 -60 callsubr
          293.00999450683594 -52 callsubr
          1201.990005493164 175 hstem
          31 callsubr
          74 callsubr
          162.99998474121094 163 179.010009765625 218.99000549316406 vstem
          1061.990005493164 397.99000549316406 rmoveto
          238 -225 125.00999450683594 -196.02000427246094 -10 callgsubr
          vhcurveto
          -218.99000549316406 113.00999450683594 -35 callgsubr
          53 149 vvcurveto
          131 146 54.99000549316406 127 callsubr
          163.99000549316406 78.00999450683594 -37.99000549316406 -42 70 vhcurveto
          45 176 rlineto
          34 -53 -117 45 -184 hhcurveto
          -246.99000549316406 -259.02000427246094 -99 -292 -220 192 -146 189 -92 hvcurveto
          214 -104 123 -63 -150 vvcurveto
          -150.02000427246094 -112 -22 callgsubr
          -191 -139 -145 47 46 -75.02000427246094 vhcurveto
          -52.97999572753906 -183 32 callgsubr
          -1 callgsubr
          145 -44.99000549316406 176 -71 callgsubr
          rlinecurve
          -27 callgsubr
          186 callgsubr
          -71 callgsubr
          77 callgsubr
          -15 callgsubr
          53 rrcurveto
          255.02000427246094 22.990005493164062 172 132 256 vvcurveto
          endchar
        </CharString>
        <CharString name="Scircumflex">
          -169 -16 callgsubr
          296 155.99000549316406 6 callsubr
          200 callsubr
          1688.990005493164 rmoveto
          137 34 callsubr
          -259.00999450683594 -301 rlineto
          -116.97999572753906 -1618 -103 callgsubr
        </CharString>
        <CharString name="Scommaaccent">
          -159 -16 callgsubr
          hstem
          197 callgsubr
          213 173 188 144 218.99000549316406 vstem
          133 70.97999572753906 rmoveto
          -35 53.99000549316406 173.02000427246094 -51.970001220703125 199.99000549316406 hhcurveto
          298 209 131.99000549316406 77 callsubr
          238 -225 125.00999450683594 -196 31 callgsubr
          -219 113.00999450683594 -83.99000549316406 53 149 vvcurveto
          131 145.99000549316406 54.99000549316406 127 callsubr
          164 77 callgsubr
          -37.99000549316406 -42 70 vhcurveto
          45 176 rlineto
          34 -53 -116.99000549316406 45 -184 hhcurveto
          -246.99000549316406 -259.00999450683594 -99 -292 -220 192 -146 189 -92 hvcurveto
          214 -104 123 -63 -150 vvcurveto
          -150.02000427246094 -112 -22 callgsubr
          -191 -139 -145 47 46 -75 vhcurveto
          -53 -183 rlineto
          344 -589.9799957275391 rmoveto
          5 callgsubr
          -15 callgsubr
          vlineto
          endchar
        </CharString>
        <CharString name="T">
          194 callsubr
          hstem
          83 callgsubr
          vstem
          537.9900054931641 111 callgsubr
          -27 callsubr
          endchar
        </CharString>
        <CharString name="Tbar">
          2 650.9900054931641 144.99000549316406 553.9999847412109 172 hstem
          83 callgsubr
          vstem
          1239.979995727539 111 callgsubr
          rmoveto
          172 -1176.990005493164 126 callsubr
          -553.9900054931641 -288.99000549316406 -145 288.99000549316406 -651 225 651 296 145 -296 553.9900054931641 477 vlineto
          endchar
        </CharString>
        <CharString name="Tcaron">
          194 callsubr
          148 146 hstem
          83 callgsubr
          vstem
          299.99000549316406 163 callsubr
          242 263 -120 -64 callgsubr
          rlineto
          238 -580.0099945068359 -27 callsubr
          endchar
        </CharString>
        <CharString name="Thorn">
          -39 75 callsubr
          -19 callsubr
          652.0099945068359 -38 callgsubr
          -39 callsubr
          543.0099945068359 221.97999572753906 vstem
          649.9900054931641 1258.990005493164 rmoveto
          -84 167 callsubr
          -7 -5 -71 hvcurveto
          275 -223 101 callgsubr
          291.97999572753906 vlineto
          -77 callgsubr
          40 58 -5 86 hhcurveto
          379 202 186.99000549316406 321 317.00999450683594 -186 148.99000549316406 -345.99000549316406 hvcurveto
          -71 -811.9900054931641 rmoveto
          -51 -51 1 -46 callsubr
          -60 hvcurveto
          626.0099945068359 vlineto
          -18 callgsubr
          11.990005493164062 56.02000427246094 3 53 2 rrcurveto
          258.99000549316406 -46 callsubr
          125.00999450683594 -95.99000549316406 -221 vvcurveto
          -291 -180.02000427246094 -52 -200.99000549316406 vhcurveto
          endchar
        </CharString>
        <CharString name="U">
          -42 callgsubr
          -26 callsubr
          -1 callsubr
          633 -104 callsubr
        </CharString>
        <CharString name="Uacute">
          -42 callgsubr
          -26 callsubr
          616.9799957275391 196 callsubr
          142 callgsubr
          97 callsubr
          -7 -6 rlinecurve
          -458 -1031.990005493164 -104 callsubr
        </CharString>
        <CharString name="Ubreve">
          -42 callgsubr
          1473.990005493164 172.99000549316406 -26 callsubr
          402.97999572753906 126 callgsubr
          -97 callsubr
          127 -157 231 hhcurveto
          220.02000427246094 125 callsubr
          -149.02000427246094 hlineto
          -24 -1 -77 callgsubr
          -141 -190 hhcurveto
          -190 175 callsubr
          -244 -1337 -104 callsubr
        </CharString>
        <CharString name="Ucircumflex">
          -42 callgsubr
          1675.990005493164 155.99000549316406 -26 callsubr
          386.99000549316406 103 callgsubr
          136.99000549316406 129 callgsubr
          188 callsubr
          127 callsubr
          60 -262 297.97999572753906 rlineto
          -197.02000427246094 hlineto
          218 callgsubr
          -301 rlineto
          -228 -1055.990005493164 -104 callsubr
        </CharString>
        <CharString name="Udieresis">
          -42 callgsubr
          1509.000015258789 151 callsubr
          hstemhm
          -1 callsubr
          222 -32 296.97999572753906 199.00999450683594 297 -59 222 hintmask 00000000
          hintmask 11011000
          349 100 callsubr
          74 84 75.99000549316406 -16 callsubr
          -94 -80 -79 176 callsubr
          495.99000549316406 hmoveto
          -82 63 -51 74.02000427246094 -36 callsubr
          -59 callgsubr
          -94 -79 137 callsubr
          hintmask 10100100
          -686 -1166.990005493164 -104 callsubr
        </CharString>
        <CharString name="Ugrave">
          -42 callgsubr
          -26 callsubr
          781.9900054931641 103 callsubr
          92 62 callgsubr
          77 -87 223 -153 97 -34 rlinecurve
          -623 -939.9900054931641 -104 callsubr
        </CharString>
        <CharString name="Uhungarumlaut">
          -42 callgsubr
          -26 callsubr
          385.99000549316406 27 callsubr
          -171.99000549316406 87 104 callsubr
          -13 -194.99000549316406 98 callgsubr
          78.00999450683594 46.02000427246094 105 115 71 65 callsubr
          rlinecurve
          -163 88 104 callsubr
          -12 -203 -263 -7.9900054931640625 56 callsubr
          rlinecurve
          -695.0099945068359 -1077 -104 callsubr
        </CharString>
        <CharString name="Umacron">
          -42 callgsubr
          1570.990005493164 207 callgsubr
          -1 callsubr
          222 92.989990234375 547 62 222 vstem
          473.99000549316406 17 callsubr
          -315 -1257.979995727539 -104 callsubr
        </CharString>
        <CharString name="Uogonek">
          162 138 callgsubr
          173.97999572753906 hstem
          -1 callsubr
          222 188 216 297.989990234375 222 vstem
          1082.979995727539 178 callsubr
          -836 vlineto
          -419 -128.99000549316406 -109.02000427246094 -206 -234 -133 108.00999450683594 420 vhcurveto
          1 836 rlineto
          -223 -889 hlineto
          -412 -1 165 -236.99000549316406 418 hhcurveto
          8 hlineto
          -104 -68.02000427246094 -38 callsubr
          -126 3 -92 rrcurveto
          -137 1 104.97999572753906 -73 91 callgsubr
          -44.02000427246094 -49.99000549316406 214 callgsubr
          -70 -56.02000427246094 18.990005493164062 -47 callsubr
          -77 callgsubr
          hvcurveto
          -2 75.99000549316406 60 106 93 85.99000549316406 rrcurveto
          249 69 120 216 336 vvcurveto
          892 -222 vlineto
          endchar
        </CharString>
        <CharString name="Uring">
          -42 callgsubr
          1377.000015258789 -20 callsubr
          284.99998474121094 124 hstemhm
          -1 callsubr
          222 43 -60 callsubr
          331.00999450683594 38 callsubr
          17.999984741210938 222 hintmask 00000000
          hintmask 11111110
          424 1807.990005493164 rmoveto
          -169 -3 128 -104 192 hhcurveto
          172 150 81 191 -24 callgsubr
          hvcurveto
          171 1 -127 92 -194.99000549316406 hhcurveto
          184 callsubr
          -161 -71 -191 -31 callsubr
          hvcurveto
          487 -2 rmoveto
          -107.00999450683594 -70 -38.99000549316406 -99 1 vhcurveto
          -100 2 -62 55.99000549316406 89 vvcurveto
          109 82 30 80 -1 vhcurveto
          95 -1 74 -46 -93 vvcurveto
          hintmask 11110010
          -752 -1172.990005493164 -104 callsubr
        </CharString>
        <CharString name="Utilde">
          -42 callgsubr
          1502.990005493164 -4 callsubr
          -1 callsubr
          222 701.989990234375 222 hintmask 10111000
          328.99000549316406 1770.990005493164 rmoveto
          84.99000549316406 -68 rlineto
          45 41 96 callgsubr
          57 -30 callgsubr
          hhcurveto
          hintmask 11011000
          104 31 44 callgsubr
          hintmask 10111000
          -102 -31 35 callsubr
          -170 -43 callgsubr
          -104 callsubr
        </CharString>
        <CharString name="V">
          54 -13 1534.990005493164 hstem
          22 1310.979995727539 vstem
          22 178 callsubr
          569 -1534.990005493164 rlineto
          187 hlineto
          554.9900054931641 1534.990005493164 rlineto
          -233.99000549316406 hlineto
          -344 -1024 -69 -235 152 callsubr
          235 -360 1024 rlineto
          -237 hlineto
          endchar
        </CharString>
        <CharString name="W">
          617 -97 callsubr
          1537.979995727539 hstem
          22 1874 vstem
          1671.990005493164 1521.990005493164 -99 callsubr
        </CharString>
        <CharString name="Wacute">
          157 callgsubr
          1320.979995727539 121 callgsubr
          -145.99000549316406 133 104 callsubr
          -13 -331 -296 -6.9799957275390625 -6 rlinecurve
          93 -92 115 145 callsubr
          351 -325 -99 callsubr
        </CharString>
        <CharString name="Wcircumflex">
          617 146 callgsubr
          22 1874 vstem
          960 128 callgsubr
          rmoveto
          200 callgsubr
          -202 127 callsubr
          -74 callsubr
          136.99000549316406 -57 221.02999877929688 202 rlineto
          711.9900054931641 -311.99000549316406 -99 callsubr
        </CharString>
        <CharString name="Wdieresis">
          617 1666.990005493164 151 callsubr
          hstem
          563.9900054931641 175 callgsubr
          vstem
          700.9900054931641 1666.990005493164 rmoveto
          -4 callgsubr
          40 callgsubr
          -79 138 callsubr
          155 callsubr
          hvcurveto
          496 hmoveto
          -45 callgsubr
          -79 142 callsubr
          138 callsubr
          74.02000427246094 hvcurveto
          475 -145 -99 callsubr
        </CharString>
        <CharString name="Wgrave">
          157 callgsubr
          996.9900054931641 103 callsubr
          92 92 56 callsubr
          6 -331.02000427246094 296 -5 13 rlinecurve
          -146 -133 77 -87 223 -153 97 -34 rlinecurve
          675 -51 -99 callsubr
        </CharString>
        <CharString name="X">
          13 0 1522.990005493164 hstem
          42.99000549316406 1229 vstem
          785 753.9900054931641 rmoveto
          477 768 rlineto
          -239 hlineto
          -356 -604 -123 201.99000549316406 -247.99000549316406 403.00999450683594 -251 -1 478 -736.0099945068359 -480.00999450683594 -785.9799957275391 rlineto
          239 hlineto
          262 448 101.00999450683594 170.99000549316406 104 -170.99000549316406 269 -448 rlineto
          254 hlineto
          -487 753.9900054931641 rlineto
          endchar
        </CharString>
        <CharString name="Y">
          -37 0 -72 callgsubr
          89 callsubr
          1241.990005493164 1521.990005493164 -75 callsubr
        </CharString>
        <CharString name="Yacute">
          -37 0 1979.979995727539 89 callsubr
          1011 -53 callsubr
          230.99000549316406 -325 -75 callsubr
        </CharString>
        <CharString name="Ycircumflex">
          -37 1833.979995727539 155.99000549316406 89 callsubr
          649.9900054931641 128 callgsubr
          rmoveto
          216 -202 144 -74 callsubr
          101 callsubr
          rlineto
          592 -311.99000549316406 -75 callsubr
        </CharString>
        <CharString name="Ydieresis">
          -37 1666.990005493164 151 callsubr
          hstemhm
          253.99000549316406 297 -28 -47 callgsubr
          1.0099945068359375 297 hintmask 00000000
          hintmask 11010000
          390.97999572753906 -40 callgsubr
          355 -145 rmoveto
          -234 hlineto
          -331 -660.0099945068359 -36 -105 59 callgsubr
          105 -338 660.0099945068359 rlineto
          -238 hlineto
          hintmask 10100000
          501 -928.0099945068359 rlineto
          -593.9799957275391 226 593.9799957275391 vlineto
          hintmask 11010000
          493 928.0099945068359 rlineto
          endchar
        </CharString>
        <CharString name="Ygrave">
          -37 0 1979.979995727539 89 callsubr
          686.9799957275391 103 callsubr
          92.02000427246094 62 callgsubr
          182 callsubr
          -87 223 -153 97 -34 rlinecurve
          555 -51 -75 callsubr
        </CharString>
        <CharString name="Z">
          -7 0 4 callgsubr
          hstem
          109 callsubr
          1127.009994506836 vstem
          109 callsubr
          -36 callsubr
          -93 callsubr
          endchar
        </CharString>
        <CharString name="Zacute">
          -7 0 4 callgsubr
          hstem
          109 callsubr
          1127.009994506836 vstem
          550.9900054931641 -62 callgsubr
          -331 -296 -7 -6 rlinecurve
          -462 -1581 -93 callsubr
          endchar
        </CharString>
        <CharString name="Zcaron">
          -7 0 4 callgsubr
          147.989990234375 146 hstem
          109 callsubr
          1127.009994506836 vstem
          335.99000549316406 16 callgsubr
          -247 -1846 -93 callsubr
          endchar
        </CharString>
        <CharString name="Zdotaccent">
          -7 0 4 callgsubr
          147 76 callsubr
          hstem
          530.9799957275391 299 vstem
          530.9799957275391 -61 callgsubr
          75 116 callsubr
          vhcurveto
          -442 -1718 -93 callsubr
          endchar
        </CharString>
        <CharString name="a">
          -79 callgsubr
          hstem
          37 callgsubr
          439.010009765625 -67 callgsubr
          564 1157 rmoveto
          -107 callgsubr
        </CharString>
        <CharString name="aacute">
          -79 callgsubr
          hstem
          37 callgsubr
          439.010009765625 -67 callgsubr
          930 1647.979995727539 13 callsubr
          -366 -490.99000549316406 rmoveto
          -107 callgsubr
        </CharString>
        <CharString name="abreve">
          -79 callgsubr
          151.010009765625 -31 callgsubr
          125 callgsubr
          -87.989990234375 154 373 -93 callgsubr
          -211.00001525878906 199 callsubr
          hintmask 11110110
          565.9900054931641 1308 rmoveto
          hintmask 11110101
          217 50 callsubr
          187 190 -17 hvcurveto
          -150 hlineto
          -27 -1 -1 -178 -190 202 callsubr
          hintmask 11110110
          69 callsubr
          -77 callgsubr
          -151 rmoveto
          -74 callgsubr
          hvcurveto
          53.99000549316406 -144.02000427246094 rlineto
          37 52 156.02000427246094 46 99.99000549316406 hhcurveto
          165 78.00999450683594 -25 -163 hvcurveto
          -115 vlineto
          -129 -172.99000549316406 -20.990005493164062 -53 -132.02000427246094 hvcurveto
          hintmask 11111010
          -135.99000549316406 -56 -86.02000427246094 -105 -148 vvcurveto
          -200 147 -120.97000122070312 202 135 124 55.99000549316406 55.99000549316406 60.99000549316406 vhcurveto
          -8 vlineto
          -98.97999572753906 41 -5 76 vhcurveto
          -55 callsubr
          115 callsubr
          hlineto
          hintmask 11110110
          299.00999450683594 -164 64 -242 vhcurveto
          hintmask 11111010
          -56 -1009.0099945068359 rmoveto
          -133 -64 60 116 88 53 46 74 35 hvcurveto
          39 82 147 16 83 hhcurveto
          -319 vlineto
          -27 -23 -117 -54 -102.00999450683594 hhcurveto
          endchar
        </CharString>
        <CharString name="acircumflex">
          -79 callgsubr
          hstem
          37 callgsubr
          439.010009765625 -67 callgsubr
          566.9900054931641 181 callgsubr
          170 callsubr
          -275.97999572753906 129 callsubr
          -20 callsubr
          30 callsubr
          rlineto
          -31 callsubr
          -359 rmoveto
          -107 callgsubr
        </CharString>
        <CharString name="acute">
          -707 1293.979995727539 489 hstem
          -18 callgsubr
          493.99000549316406 vstem
          -18 callgsubr
          1384 rmoveto
          -86 callsubr
          207 callsubr
          -98 -138 151 callgsubr
          -2 callgsubr
          endchar
        </CharString>
        <CharString name="acute.cap">
          -704 1572.979995727539 406.99000549316406 hstem
          57.99000549316406 488.97999572753906 vstem
          58 196 callsubr
          115 97 callsubr
          56 callsubr
          -6 rlinecurve
          endchar
        </CharString>
        <CharString name="adieresis">
          -79 callgsubr
          206 169 callgsubr
          125 callgsubr
          -115.989990234375 75 callsubr
          172.99998474121094 75 callsubr
          -187.97999572753906 -22 callsubr
          hintmask 11110110
          141 callsubr
          198 callgsubr
          rmoveto
          181 callsubr
          155 callsubr
          61 88 -30 callgsubr
          -38.99000549316406 58 -91.02000427246094 -76 -72 callsubr
          -3 callgsubr
          -30 callgsubr
          hvcurveto
          458.00999450683594 61 callsubr
          72 hvcurveto
          hintmask 11111001
          -220 -205.99000549316406 rmoveto
          -107 callgsubr
        </CharString>
        <CharString name="ae">
          -7 callsubr
          1682.979995727539 726 -94 callgsubr
        </CharString>
        <CharString name="aeacute">
          -7 callsubr
          1268 9 callgsubr
          414.99000549316406 -921.9900054931641 -94 callgsubr
        </CharString>
        <CharString name="agrave">
          -79 callgsubr
          hstem
          37 callgsubr
          439.010009765625 -67 callgsubr
          564.9799957275391 -3 callsubr
          113 callgsubr
          128 -131 20 callsubr
          -37 callgsubr
          -136.99000549316406 rmoveto
          -107 callgsubr
        </CharString>
        <CharString name="amacron">
          -79 callgsubr
          268.010009765625 163 125 callgsubr
          -16.989990234375 547 -91 -22 callsubr
          hintmask 11110100
          840.9900054931641 68 callsubr
          hintmask 11111010
          -277 -431 rmoveto
          -107 callgsubr
        </CharString>
        <CharString name="ampersand">
          231 -97 callsubr
          127.97000122070312 -127.97000122070312 -1 callsubr
          1246.990005493164 -60 callsubr
          hstemhm
          -18 callsubr
          207 -64.989990234375 204 397 186.97999572753906 -47 callsubr
          32 callsubr
          hintmask 00000000
          hintmask 10101110
          1212.990005493164 180 rmoveto
          -55 callsubr
          80 47.99000549316406 114 148 vvcurveto
          39 callsubr
          -18.990005493164062 76 -10.020004272460938 35 vhcurveto
          -192 hlineto
          49 callsubr
          -28 25 -83.99000549316406 -93 vvcurveto
          -104.02000427246094 -31 -70.97999572753906 -51 -53 vhcurveto
          -102.02000427246094 185 callgsubr
          187 callsubr
          215 -76 106 rrcurveto
          74 callsubr
          99 126 87 callgsubr
          248 vvcurveto
          177.99000549316406 -140 166 -233.99000549316406 -252 -162 -136 -222 -159.99000549316406 86 -130 83 -111 vhcurveto
          hintmask 01110110
          -173 40 callgsubr
          -138.02000427246094 -126 -187 vvcurveto
          -273 249 -136.99000549316406 356 107.00999450683594 118 33.970001220703125 45.02000427246094 86 vhcurveto
          hintmask 10101110
          -54 77 callgsubr
          71 -24.979995727539062 100 hhcurveto
          51 127 callgsubr
          7 -46 callsubr
          27 hvcurveto
          112.97999572753906 vlineto
          -35 callgsubr
          9.020004272460938 -64 14.990005493164062 -68 44 rrcurveto
          -514 1210 rmoveto
          128 63.02000427246094 -109.02000427246094 -82 -179 -92.02000427246094 -95.99000549316406 -152.99000549316406 221 callgsubr
          hvcurveto
          -104 145 -48 44 145.99000549316406 vvcurveto
          143 -35 callsubr
          54 110 vhcurveto
          hintmask 01110110
          40 -1247 rmoveto
          -285.97999572753906 -99 128 129 108 82 87 121 63 hvcurveto
          94 -132 -1 callsubr
          -211.99000549316406 116 -131 rrcurveto
          -23 51 callgsubr
          -55 -17 -77 hhcurveto
          endchar
        </CharString>
        <CharString name="aogonek">
          -170 138 callgsubr
          163.97999572753906 399.99000549316406 140 303 166 125 callgsubr
          248 216 -24.989990234375 -22 callsubr
          hintmask 11111100
          902.9799957275391 -363.99000549316406 rmoveto
          -70 -55.99000549316406 18.990005493164062 -47 callsubr
          -2 hvcurveto
          -77 callgsubr
          93.99000549316406 81 84.00999450683594 -10 callgsubr
          65 rrcurveto
          15.009994506835938 hlineto
          hintmask 11111010
          115 callsubr
          vlineto
          299.00999450683594 -164 64 -242 -74 callgsubr
          vhcurveto
          53.99000549316406 -144.02000427246094 rlineto
          37 52 156.02000427246094 46 99.99000549316406 hhcurveto
          165 78.00999450683594 -25 -163 hvcurveto
          -115 vlineto
          -129 -172.99000549316406 -20.990005493164062 -53 -132.02000427246094 hvcurveto
          -135.99000549316406 -56 -86.02000427246094 -105 -148 vvcurveto
          -200 147 -120.97000122070312 202 135 124 55.99000549316406 55.99000549316406 60.99000549316406 vhcurveto
          -8 vlineto
          94 callgsubr
          10.020004272460938 -15 callgsubr
          19.990005493164062 -13.979995727539062 vhcurveto
          hintmask 11111100
          -118.00999450683594 -62 150 callsubr
          -121 -77 callsubr
          -118 rrcurveto
          -137 1 105 -73 173 callgsubr
          57 hvcurveto
          118 vlineto
          -17.020004272460938 -24 callsubr
          -50 154 callsubr
          -45.02000427246094 hhcurveto
          hintmask 11111010
          -395 511.97999572753906 rmoveto
          -133 -64 60 116 88 53 46 74 35 hvcurveto
          39 82 147 16 83 hhcurveto
          -319 vlineto
          -27 -23 -117 -54 -102.00999450683594 hhcurveto
          endchar
        </CharString>
        <CharString name="approxequal">
          137 254.99000549316406 32 callsubr
          -18.990005493164062 186.97999572753906 103.02000427246094 32 callsubr
          -18.990005493164062 187 hstemhm
          110 callsubr
          1005.9900054931641 hintmask 01011000
          215 857.9900054931641 rmoveto
          115 -89 rlineto
          64 47 52 50.02000427246094 94 hhcurveto
          hintmask 01101000
          50 callsubr
          44 -169 193 hhcurveto
          170 108.00999450683594 99 104 39 hvcurveto
          -103 99 rlineto
          -65 -48 -60 -49 -94 -139 -52 168.02000427246094 -193 hhcurveto
          hintmask 01011000
          187 callsubr
          -119.00999450683594 -128 -35 callgsubr
          -1 callgsubr
          hvcurveto
          152 callgsubr
          -459 rmoveto
          142 callgsubr
          -89 210 callsubr
          hintmask 10011000
          45 callgsubr
          -49 -94 -139 -52 168 -193 hhcurveto
          hintmask 01011000
          -165 150 callsubr
          -128 -83.99000549316406 -32 hvcurveto
          endchar
        </CharString>
        <CharString name="aring">
          -79 callgsubr
          171 205 callgsubr
          125 callgsubr
          -64.989990234375 -60 callsubr
          331.00999450683594 38 callsubr
          -136.99000549316406 -93 callgsubr
          hintmask 1111101010000000
          563 1327.979995727539 rmoveto
          hintmask 1111101100000000
          -31 callgsubr
          150 87 191 2 hvcurveto
          171 1 -127 95 callgsubr
          -195 hhcurveto
          -156 -160.99000549316406 -75.02000427246094 -191 -3 hvcurveto
          hintmask 1111101010000000
          -169 -31 callsubr
          128 -110 192 hhcurveto
          hintmask 1111101100000000
          1 421.00999450683594 rmoveto
          39 callsubr
          -1 74.02000427246094 -49.99000549316406 -93 vvcurveto
          -107.00999450683594 -70 -45 -99 1 vhcurveto
          -100 -24 callgsubr
          -62 96 callgsubr
          109 callsubr
          vvcurveto
          109.02000427246094 82 34 181 callsubr
          -1 vhcurveto
          hintmask 1111110010000000
          -592 vmoveto
          -107 callgsubr
        </CharString>
        <CharString name="asciicircum">
          62 489.97999572753906 1040.990005493164 hstem
          217 callsubr
          992.9900054931641 vstem
          395.97999572753906 489.97999572753906 rmoveto
          -210.99000549316406 hlineto
          394 1041 rlineto
          205 hlineto
          394 -1041 rlineto
          -211 hlineto
          -285 798 -286 -798 rlineto
          endchar
        </CharString>
        <CharString name="asciitilde">
          137 613.9900054931641 188 -19 187 hstemhm
          200 callgsubr
          1005.0200042724609 hintmask 01100000
          200 callgsubr
          757.9900054931641 rmoveto
          142 callgsubr
          26 callgsubr
          210 callsubr
          hintmask 10100000
          45 callgsubr
          94 callgsubr
          -94 -139 -52 168 -193 hhcurveto
          hintmask 01100000
          -165 150 callsubr
          -128 -84 -32 hvcurveto
          endchar
        </CharString>
        <CharString name="asterisk">
          -93 646.9799957275391 1013 hstemhm
          510.47999572753906 176 -166.5 175.49000549316406 hintmask 00000000
          hintmask 10100000
          525.9900054931641 909.9900054931641 rmoveto
          -12 -263 192 1 -21 262 -2 49 callsubr
          -35 187 callgsubr
          -2 7 rlinecurve
          131 -112.99000549316406 217 -144.02000427246094 97 170 -236 115 -165 49 164 55 232 121 -95 163 rlineto
          hintmask 11000000
          -220 -146 -7 -5 -114 -109.02000427246094 -4.0099945068359375 -4 rlinecurve
          34.02000427246094 168 12.990005493164062 262 rlineto
          -192 hlineto
          19 -264.99000549316406 rlineto
          2 -8.009994506835938 36.99000549316406 58 callsubr
          104 callsubr
          vvcurveto
          -128.99000549316406 113 -220.02000427246094 145 -93 -165 234 -117.99000549316406 8 -2 152 -24 callsubr
          6 -3 rlinecurve
          -165 -53 -230.99000549316406 -123.99000549316406 -35 callsubr
          -164 rlineto
          hintmask 10100000
          218 146 -20 callsubr
          121 -35 -170 rlineto
          endchar
        </CharString>
        <CharString name="at">
          917 -478 148 325.00999450683594 -1 callsubr
          -158.99000549316406 176.99000549316406 741.9799957275391 149 334 146 hstemhm
          74 callsubr
          176 247.989990234375 188 467 161.72999572753906 377.28001403808594 176.99000549316406 hintmask 1101111110000000
          1287.990005493164 181.99000549316406 rmoveto
          -121 155 callgsubr
          45 -65.97999572753906 -35 callsubr
          hhcurveto
          285 285 307.97999572753906 529.0200042724609 456.99000549316406 -309.97999572753906 253.99000549316406 -446.02000427246094 -587 -452 -443 -675.9900054931641 -611 378 -291 482 193 191 50 52.99000549316406 85 hvcurveto
          -39 129 rlineto
          -35 -70 -141 94 callgsubr
          -198.99000549316406 hhcurveto
          -364.00999450683594 -339.99000549316406 201.99000549316406 572.9900054931641 563 372 389 451.99000549316406 343 275 -116 -484.99000549316406 -357.00999450683594 -193 -285 -148 -46 1 102.02000427246094 180.97999572753906 28 hvcurveto
          29 190.02000427246094 58 265.99000549316406 127 callgsubr
          146 -172.02000427246094 154 callgsubr
          rcurveline
          127 callgsubr
          -55.99000549316406 -50 callsubr
          16 -86 hhcurveto
          -384 -167 -351 -276.99000549316406 -7 hvcurveto
          hintmask 1011111110000000
          -300.02000427246094 -6 153 -139.97999572753906 135 hhcurveto
          38 callsubr
          128 144.97999572753906 173.02000427246094 91 hvcurveto
          hintmask 1101111110000000
          56 callsubr
          -57 0 -42 -77 callsubr
          -32 rrcurveto
          hintmask 1011111110000000
          -322.99000549316406 -10 rmoveto
          -107.00999450683594 -37.99000549316406 128 175 5 hvcurveto
          205 6 123 233.99000549316406 221 hhcurveto
          59.99000549316406 84.00999450683594 -20 callgsubr
          -55 33 hvcurveto
          -228.99000549316406 -31 -217.99000549316406 -438 -138 hhcurveto
          endchar
        </CharString>
        <CharString name="atilde">
          -79 callgsubr
          187.02000427246094 13 callgsubr
          93.97999572753906 217 439.010009765625 -22 callsubr
          hintmask 11101110
          414.99000549316406 102 callsubr
          hintmask 11110110
          104 21.020004272460938 112 callgsubr
          170.99000549316406 hhcurveto
          122 97.02000427246094 -34 callgsubr
          hintmask 11101110
          107 callsubr
          186 callgsubr
          135 callgsubr
          hintmask 11110110
          149 -325 rmoveto
          -107 callgsubr
        </CharString>
        <CharString name="b">
          -63 -18 -19 callsubr
          839 161 callsubr
          -56 callgsubr
          -93 callgsubr
          531.0099945068359 -12 callsubr
          vstem
          195 callsubr
          -170 -50 callsubr
          -72 -54 -52.99000549316406 hvcurveto
          -46 callsubr
          159 rlineto
          472 -220 -1596.990005493164 vlineto
          -28.020004272460938 43 198 -53.97999572753906 -1 callsubr
          -43 callsubr
        </CharString>
        <CharString name="backslash">
          172 callgsubr
          188 callgsubr
          1599 rmoveto
          -198 hlineto
          570 -1962 rlineto
          198 hlineto
          -570 1962 rlineto
          endchar
        </CharString>
        <CharString name="bar">
          -446 -188 1968 132 callgsubr
          -1968 203.02000427246094 1968 -203.02000427246094 vlineto
          endchar
        </CharString>
        <CharString name="braceleft">
          116 callgsubr
          326.97999572753906 208.99000549316406 vstem
          535.9799957275391 975.9900054931641 rmoveto
          620 266.02000427246094 122 vlineto
          11 -86.02000427246094 -81.99000549316406 13 -109.02000427246094 hhcurveto
          58 callsubr
          -44.02000427246094 -59 -197 hvcurveto
          -511 vlineto
          -60 -151 -57 -100.99000549316406 -10 vhcurveto
          -142 vlineto
          -10 callgsubr
          -10 151 152 callsubr
          -58 vvcurveto
          -511 vlineto
          -196.97999572753906 44.02000427246094 -59 38 callsubr
          109.02000427246094 81.99000549316406 11 24 -47 callsubr
          vhcurveto
          111.99000549316406 -266.02000427246094 620.9900054931641 vlineto
          32 -14.990005493164062 29 -25.009994506835938 26.990005493164062 vhcurveto
          -44.99000549316406 47 -79 40 -77 30 76 30 77 31.990005493164062 43.99000549316406 43 rrcurveto
          28 -8 callsubr
          16 30 38 vvcurveto
          endchar
        </CharString>
        <CharString name="braceright">
          116 callgsubr
          435.99000549316406 208.99000549316406 vstem
          645 974.9900054931641 rmoveto
          511 vlineto
          197 -44 59 58 callsubr
          -109.02000427246094 -81.97999572753906 -13 -11 -86.02000427246094 vhcurveto
          -122 266.02000427246094 -620 vlineto
          -38 16 -30 28 -25.990005493164062 vhcurveto
          44 -43 77 -1 callgsubr
          76 -30 -77 -30 -72 callsubr
          -40 -45 -47 rrcurveto
          -25 216 callsubr
          -15 -29 -32 vvcurveto
          -620.9900054931641 -266.02000427246094 113 callgsubr
          vlineto
          -24 -47 callsubr
          81.97999572753906 -11 109.02000427246094 hhcurveto
          38 callsubr
          44 59 196.97999572753906 hvcurveto
          511 vlineto
          58 151 201 callsubr
          -10 callgsubr
          10 vhcurveto
          142 vlineto
          -100.99000549316406 10 -151 57 60 vvcurveto
          endchar
        </CharString>
        <CharString name="bracketleft">
          143 callsubr
          217 callsubr
          211.99000549316406 vstem
          185 1485.990005493164 rmoveto
          -1426 vlineto
          -196.97999572753906 36 -54 38 callsubr
          123 69 10 39 callgsubr
          98 vhcurveto
          116 vlineto
          -268 -24 callgsubr
          rlineto
          1642 268 119.99000549316406 vlineto
          11 -98 -69 13 -123 hhcurveto
          58 callsubr
          -36 -54 -197 hvcurveto
          endchar
        </CharString>
        <CharString name="bracketright">
          143 callsubr
          439.99000549316406 211.99000549316406 vstem
          651.9799957275391 1485.990005493164 rmoveto
          197 -35.99000549316406 54 -154 -123 -69 -13 -11 -98 vhcurveto
          105 callgsubr
          268 -1642 vlineto
          -268 -77 callgsubr
          rlineto
          -116 vlineto
          60 callgsubr
          98 69 -10 123 hhcurveto
          154 35.99000549316406 54 196.97999572753906 hvcurveto
          1426 vlineto
          endchar
        </CharString>
        <CharString name="breve">
          -517 1307.990005493164 -31 callgsubr
          hstem
          32 callgsubr
          154 382 199 callsubr
          vstem
          32 callgsubr
          162 callsubr
          69 callsubr
          -9 callgsubr
          -37 callgsubr
          hvcurveto
          -154 hlineto
          endchar
        </CharString>
        <CharString name="breve.cap">
          -520 1631.979995727539 161 callsubr
          47.6300048828125 686.7100067138672 vstem
          32 callgsubr
          126 callgsubr
          -16 127 -157 231 hhcurveto
          220 139.02000427246094 63 callgsubr
          -153 hlineto
          endchar
        </CharString>
        <CharString name="brokenbar">
          -446 -185.99000549316406 1965.990005493164 132 callgsubr
          -830.0099945068359 203.02000427246094 830.0099945068359 -203.02000427246094 vlineto
          -1139.020004272461 vmoveto
          -826.9799957275391 203.02000427246094 826.9799957275391 -203.02000427246094 vlineto
          endchar
        </CharString>
        <CharString name="bullet">
          -446 498.99000549316406 452.99000549316406 hstem
          -15 callsubr
          440.99000549316406 vstem
          -15 callsubr
          723.9900054931641 rmoveto
          -121 -7 97 -104 121.02000427246094 hhcurveto
          119.99000549316406 104 102.99000549316406 126 6 hvcurveto
          126.02000427246094 7 -97 98 86 callgsubr
          hhcurveto
          -120 -104 -101.00999450683594 -127 -7 hvcurveto
          endchar
        </CharString>
        <CharString name="c">
          -29 callsubr
          647.9900054931641 -10 callsubr
          -97 callgsubr
        </CharString>
        <CharString name="cacute">
          -29 callsubr
          482 1384 rmoveto
          -86 callsubr
          207 callsubr
          219 callgsubr
          -138 -126 -2 callgsubr
          -56 callgsubr
          -228 -97 callgsubr
        </CharString>
        <CharString name="caron">
          -477 130 callsubr
          -61 callsubr
          1681.979995727539 rmoveto
          149 callgsubr
          -56 276.00999450683594 -333 rlineto
          198 hlineto
          -17 callgsubr
          111 callsubr
          rlineto
          endchar
        </CharString>
        <CharString name="caron.cap">
          -542 201 callgsubr
          146 hstem
          47.97999572753906 685.0200042724609 vstem
          47.97999572753906 1929.990005493164 rmoveto
          246 35 callgsubr
          -216 225 callgsubr
          endchar
        </CharString>
        <CharString name="caronvertical">
          -962 1033.990005493164 653 hstem
          104.97999572753906 197.00999450683594 vstem
          64.97999572753906 93 callgsubr
          96 callgsubr
          179 callgsubr
          -18 -51 callsubr
          -44.02000427246094 127 callgsubr
          vhcurveto
          -175.97999572753906 -55 60 callgsubr
          -47 rlineto
          25 -31 29.990005493164062 -92 -79 vvcurveto
          -163 -27 -48 -20.990005493164062 -76 vhcurveto
          -46 callsubr
          -28 rlineto
          endchar
        </CharString>
        <CharString name="ccaron">
          -29 callsubr
          366 222 callgsubr
          151 callgsubr
          -56 276.00999450683594 -55 callgsubr
          77 callsubr
          -554 -97 callgsubr
        </CharString>
        <CharString name="ccedilla">
          -299 -463.99000549316406 -60 callsubr
          294 164 835.9799957275391 170 36 callsubr
          202.01998901367188 162.97999572753906 vstem
          948 92 rmoveto
          -45.02000427246094 31 callsubr
          rlineto
          -30.990005493164062 -51 -107 -36 -114 hhcurveto
          -185 -146 157 290 10 hvcurveto
          278 10.020004272460938 -38 callgsubr
          111 157 hhcurveto
          116 80 -20.990005493164062 -42 60 hvcurveto
          35 174 rlineto
          24 -36 -100.99000549316406 35 -143 hhcurveto
          -367 -184 -262 -336 -294.00999450683594 146 -229.99000549316406 263.97999572753906 59 callgsubr
          hvcurveto
          10.020004272460938 -35 4 -46.02000427246094 -71 callgsubr
          -68 rrcurveto
          73 callsubr
          -7 -55 -42 -65 hhcurveto
          -30.990005493164062 -34 -77 callsubr
          11.020004272460938 -17.020004272460938 hvcurveto
          -15 -32 callsubr
          -14 callgsubr
          hvcurveto
          6 84.00999450683594 -9 77 -25 53.99000549316406 125.00999450683594 8 114 40 62 58 rrcurveto
          endchar
        </CharString>
        <CharString name="ccircumflex">
          -29 callsubr
          238 1349 rmoveto
          126 27 callgsubr
          -275.99000549316406 129 callsubr
          rlineto
          409.99000549316406 -193 -97 callgsubr
        </CharString>
        <CharString name="cdotaccent">
          -299 82 callgsubr
          835.9799957275391 170 212 callsubr
          36 callsubr
          149.99998474121094 303 vstem
          459.97999572753906 118 callsubr
          171 callsubr
          -79.00999450683594 -83 -69 -87 vhcurveto
          188 -326 -97 callgsubr
        </CharString>
        <CharString name="cedilla">
          -816 -463.99000549316406 160 callgsubr
          276 157.97999572753906 vstem
          61.99000549316406 -293.99000549316406 rmoveto
          184 callgsubr
          -32 callsubr
          39 callgsubr
          hvcurveto
          8 111 -18 99 -47 32 callgsubr
          -43 113 callsubr
          rcurveline
          -83 -4.0200042724609375 19 -38.970001220703125 39 callgsubr
          -52.02000427246094 -13 -97 rlinecurve
          97 callgsubr
          endchar
        </CharString>
        <CharString name="cent">
          -118 -216 365.99000549316406 835.989990234375 391 hstemhm
          153 callgsubr
          74 callsubr
          212.99998474121094 149.5 -112.50999450683594 149.52000427246094 hintmask 11101000
          1007.9799957275391 92 rmoveto
          -44.99000549316406 31 callsubr
          rlineto
          -30.990005493164062 -51 -107 -36 -113.99000549316406 hhcurveto
          -185 -146 157 290 10 hvcurveto
          278 10 160 111 157 hhcurveto
          116 80 -20.990005493164062 -42 60 hvcurveto
          35 174 154 callgsubr
          50 callgsubr
          -78 28.020004272460938 113 callgsubr
          -46 callsubr
          rlinecurve
          5 223 rlineto
          -149 hlineto
          -6 -227 rlineto
          -306 -40 58 callsubr
          -245 -307 vvcurveto
          hintmask 11110000
          -300.00999450683594 187 callgsubr
          -234.99000549316406 275 -33.99000549316406 vhcurveto
          -4 -205 rlineto
          150 hlineto
          -77 callsubr
          204 rlineto
          hintmask 11101000
          142 callgsubr
          12 65 callsubr
          38.99000549316406 57 53 rrcurveto
          endchar
        </CharString>
        <CharString name="circumflex">
          -465 130 callsubr
          93 callsubr
          1349 rmoveto
          87 callgsubr
          -56.02000427246094 249 223 -9 callsubr
          rlineto
          endchar
        </CharString>
        <CharString name="circumflex.cap">
          -486 146 callgsubr
          47.97999572753906 718 vstem
          47.97999572753906 103 callgsubr
          137.02000427246094 34 callsubr
          -259.02000427246094 -301 rlineto
          endchar
        </CharString>
        <CharString name="colon">
          -699 -22 141 callsubr
          470 326 166 callgsubr
          925.9799957275391 -28 callsubr
          -79 177 callgsubr
          -796 vmoveto
          0 callsubr
        </CharString>
        <CharString name="colonmonetary">
          28 -13 217 callsubr
          1177 188.99000549316406 hstemhm
          39 callsubr
          231.99000549316406 183.00999450683594 115.49000549316406 5.4999847412109375 117.49000549316406 13.5 117 6.5200042724609375 117 hintmask 00000000
          hintmask 11101000
          620.9900054931641 1513.979995727539 rmoveto
          -296 -76.99000549316406 -230 -264 -420 vvcurveto
          -350 160 -261 268 -106 vhcurveto
          hintmask 11110100
          -15 callgsubr
          -389.97999572753906 rlineto
          117 hlineto
          23 354.97999572753906 44 -7.9799957275390625 45.02000427246094 -6 47 -77 callgsubr
          rlinecurve
          -22.020004272460938 -339 rlineto
          117 hlineto
          22.020004272460938 341 rlineto
          hintmask 11101010
          140.99000549316406 11 -55 callsubr
          36 74 30 -1 197 rcurveline
          -24 callsubr
          182 callgsubr
          86 callgsubr
          -37.99000549316406 -127 -12 77 1166 rcurveline
          116 -18 55 -34.02000427246094 50 callgsubr
          -11 33 206 rcurveline
          -37.99000549316406 8.990005493164062 -64 23 -110 14 19 288.00999450683594 rcurveline
          -117 hlineto
          -19 -278.02000427246094 rlineto
          1 -22 -23 0 -24 hhcurveto
          -23 -22 -1 -77 callgsubr
          -23.020004272460938 hvcurveto
          19.009994506835938 280 rlineto
          -117 hlineto
          hintmask 11101000
          -20 callgsubr
          -301.02000427246094 rlineto
          164 -1345 rmoveto
          -48 3 -45 10 -42 15.009994506835938 76 1143.990005493164 rcurveline
          5 51 callsubr
          33.02000427246094 3 34 hhcurveto
          -14 callgsubr
          13 0 -1 13 hvcurveto
          -72 callsubr
          -1179.009994506836 rlineto
          -248 -55 callsubr
          rmoveto
          -135 65 callsubr
          -75 183 225 vvcurveto
          262 103.02000427246094 190.02000427246094 176.99000549316406 -51 callgsubr
          vhcurveto
          -70 -1044.990005493164 rlineto
          endchar
        </CharString>
        <CharString name="comma">
          -699 -499.99000549316406 770.9900054931641 hstem
          281.97999572753906 185 callsubr
          vstem
          151 -381.99000549316406 -14 callsubr
        </CharString>
        <CharString name="copyright">
          828 81.97999572753906 129 268 153 callgsubr
          657.0099945068359 153 callgsubr
          264.02000427246094 -20 callsubr
          -57 callsubr
          142 285 -78 callgsubr
          977.0199890136719 -46 callgsubr
          53 1239 rmoveto
          -323.00999450683594 -173 -214 -280 -248 163 -229 277 133 121 40 54 65 hvcurveto
          -45 124.00999450683594 rlineto
          -28 -49.99000549316406 -92.02000427246094 -33 -104.97999572753906 hhcurveto
          -160.02000427246094 -113 118 217 180 99 141.99000549316406 184 100 70 216 callsubr
          -36 54.99000549316406 hvcurveto
          32 164 rlineto
          19.990005493164062 -35 -75 36 -128 hhcurveto
          endchar
        </CharString>
        <CharString name="currency">
          226 330.99000549316406 163.97999572753906 555.0099945068359 165 hstem
          321.97999572753906 177 530.010009765625 177.99000549316406 vstem
          1206.990005493164 773 rmoveto
          -35 callsubr
          -30 88 -51 72.00999450683594 vhcurveto
          209 209 -127 127 -214 -212.99000549316406 rlineto
          40 152 callsubr
          -79 23 -84 hhcurveto
          -83.99000549316406 149 callsubr
          -23 -41 -69 callgsubr
          hvcurveto
          -210 211.99000549316406 151 callgsubr
          -128 205 -205 rlineto
          -52 -71.99000549316406 -30 -89 -95.99000549316406 vvcurveto
          -97.02000427246094 31 26 callgsubr
          52 -72 vhcurveto
          -206 -207 127 -127.02000427246094 211 212 rlineto
          -39 201 callsubr
          182 callsubr
          -23 83 hhcurveto
          85.00999450683594 78 callsubr
          23 41 59 callsubr
          hvcurveto
          209.02000427246094 -210 127 127 -205 58 callgsubr
          rlineto
          51 72 30 87 95 callgsubr
          vvcurveto
          -442 -278.02000427246094 rmoveto
          -147 150 callsubr
          87 callgsubr
          152 152 118.99000549316406 31 callsubr
          147 147 117 -124.99000549316406 -152 -152 -117 149 callgsubr
          -147 hvcurveto
          endchar
        </CharString>
        <CharString name="d">
          -64 15 callgsubr
          529.9999847412109 -67 callgsubr
          850.9799957275391 1664 rmoveto
          -475.02000427246094 vlineto
          -98 callgsubr
          1679.990005493164 -220 hlineto
          -530 -1106 -92 callgsubr
        </CharString>
        <CharString name="dagger">
          -275 1126.5 159.49000549316406 hstemhm
          412.47999572753906 200.99000549316406 -194 187 hintmask 10100000
          413.97999572753906 1128 rmoveto
          11 -928.0099945068359 rlineto
          176 hlineto
          11 928.0099945068359 290 -3 rlineto
          163 vlineto
          hintmask 11000000
          -290 -4 3 374 rlineto
          -204 hlineto
          -77 callsubr
          -374 -289 4 -1 -163 rlineto
          hintmask 10100000
          290 3 rlineto
          endchar
        </CharString>
        <CharString name="daggerdbl">
          -275 477.49000549316406 160 489.00999450683594 -38 callgsubr
          hstemhm
          412.99000549316406 197.97999572753906 -190.47999572753906 182.47999572753906 hintmask 11010000
          413 478.99000549316406 rmoveto
          15 -834.9900054931641 rlineto
          166.99000549316406 hlineto
          16 834.9900054931641 290.02000427246094 -31 callsubr
          rlineto
          163 vlineto
          hintmask 11100000
          -290.02000427246094 -3 rlineto
          492.00999450683594 vlineto
          291 -3 rlineto
          163 vlineto
          -291 -31 callsubr
          113 callsubr
          373 rlineto
          -205 hlineto
          3 -373 -288.00999450683594 -77 callsubr
          -1 -163 289.00999450683594 3 rlineto
          -492.00999450683594 vlineto
          -289.00999450683594 3 rlineto
          -163 vlineto
          hintmask 11010000
          289.00999450683594 -77 callsubr
          rlineto
          endchar
        </CharString>
        <CharString name="dcaron">
          347 15 callgsubr
          529.9999847412109 -93 callgsubr
          277.02000427246094 112 callsubr
          vstem
          1483 1687 rmoveto
          -176 -55 60 callgsubr
          -47 rlineto
          25.009994506835938 -31 30 -92 -79 vvcurveto
          -163 -27.009994506835938 -48 -21 -76 vhcurveto
          49 callsubr
          -28 156 callgsubr
          -51 callsubr
          -24 callsubr
          127 callgsubr
          vhcurveto
          -632.0200042724609 -498.00999450683594 rmoveto
          -98 callgsubr
          1679.990005493164 -220 -475.02000427246094 hlineto
          -530 -630.9900054931641 -92 callgsubr
        </CharString>
        <CharString name="dcroat">
          158 callsubr
          150 141 hstem
          -51 callsubr
          -12 callsubr
          529.9999847412109 -67 callgsubr
          1211.990005493164 1446.990005493164 rmoveto
          -141 217 -220 -217 -269.97999572753906 -141 269.97999572753906 -117 hlineto
          -98 callgsubr
          1321.979995727539 141 141 hlineto
          -891 -889 -92 callgsubr
        </CharString>
        <CharString name="degree">
          -389 938.9799957275391 143.99000549316406 389.0299987792969 144.99000549316406 hstem
          116 -60 callsubr
          368.989990234375 155 vstem
          455.99000549316406 1617 rmoveto
          -190 -150 -142 -197 -195 151.99000549316406 -144 188 190 150.02000427246094 142 197 -8 callgsubr
          -151 127 callsubr
          -189 hvcurveto
          -534.0200042724609 vmoveto
          -101.99000549316406 -82 83 112 185 callgsubr
          82 81.02000427246094 65 callsubr
          102.00999450683594 -51 callgsubr
          -82 -112 -113.00999450683594 -82.99000549316406 -82 -102.00999450683594 hvcurveto
          endchar
        </CharString>
        <CharString name="dieresis">
          -438 198 callgsubr
          169 callgsubr
          hstem
          59.99000549316406 75 callsubr
          172.99998474121094 75 callsubr
          vstem
          59.99000549316406 34 callgsubr
          458 hmoveto
          204 callgsubr
          80 155 callsubr
          61 88 -30 callgsubr
          -40 58 57 callsubr
          -77 -78 148 callsubr
          endchar
        </CharString>
        <CharString name="dieresis.cap">
          -408 1666.990005493164 151 callsubr
          hstem
          -18 callgsubr
          297 199 297 vstem
          -18 callgsubr
          66 callsubr
          -93.99000549316406 142 callsubr
          136 callsubr
          496 hmoveto
          -82 63 -51 74 -4 callgsubr
          -72 callsubr
          -80 176 callsubr
          endchar
        </CharString>
        <CharString name="divide">
          92 76 callgsubr
          186 callsubr
          164.00999450683594 170 171.010009765625 299.99000549316406 hstem
          550.9900054931641 305.99000549316406 vstem
          550.9900054931641 1167.990005493164 rmoveto
          -85.00999450683594 65 -53.99000549316406 76 85 80 -11 callgsubr
          94 78.00999450683594 -47 61.99000549316406 -58 callsubr
          -82 -82 -71 57 callsubr
          vhcurveto
          -322 -310 rmoveto
          -170 935 170 -935 vlineto
          321 -495 rmoveto
          -83.99000549316406 65 -54 76 84.99000549316406 80 65 39 callsubr
          77 -47 62 -58 callsubr
          -82 -82 -70.99000549316406 -50 callsubr
          vhcurveto
          endchar
        </CharString>
        <CharString name="dollar">
          71 -14 175 1201.979995727539 173.00999450683594 hstemhm
          231.99000549316406 74 callsubr
          147.989990234375 163 -122 163 153.00999450683594 219 hintmask 11101100
          1169 397.99000549316406 rmoveto
          238 -225.02000427246094 125.00999450683594 -195.99000549316406 -10 callgsubr
          vhcurveto
          -219 113.00999450683594 -35 callgsubr
          53 149 vvcurveto
          131 146 54.99000549316406 144 164 78 -37.99000549316406 -42 70 vhcurveto
          45 176 -47 30 -98 39 -151 49 callsubr
          rlinecurve
          -24 callgsubr
          226 rlineto
          -163 hlineto
          -77 callgsubr
          -230 rlineto
          -210 -25.990005493164062 -191 -108.00999450683594 -251 vvcurveto
          -220 192 -146 188.99000549316406 -92 vhcurveto
          214 -104 123 -63 -150 vvcurveto
          -150.02000427246094 -112 -22 callgsubr
          -191 -139 -145 47 46 -75 vhcurveto
          -53 -183 rlineto
          hintmask 11110100
          48 -30.990005493164062 141 -24 callsubr
          169.99000549316406 -10.020004272460938 -77 callgsubr
          214 callsubr
          rcurveline
          163 hlineto
          -24 callgsubr
          226 rlineto
          hintmask 11101100
          246 -8 callsubr
          166 131.99000549316406 251 vvcurveto
          endchar
        </CharString>
        <CharString name="dong">
          31 0 112 callsubr
          93.989990234375 184 590 183 105.010009765625 140 callgsubr
          hstem
          153 callgsubr
          238.97999572753906 453.02000427246094 111 callsubr
          vstem
          511 1520.990005493164 rmoveto
          -168 338 vlineto
          4 -123 rlineto
          155 callgsubr
          -43 -69 callgsubr
          8.990005493164062 -38 callsubr
          hhcurveto
          -319 -187.99000549316406 -189 -322.99000549316406 -303 -78 callgsubr
          -142 221 180 89.00999450683594 69.02000427246094 41 43.99000549316406 hvcurveto
          -70 vlineto
          -8 0 -32.02000427246094 23 vhcurveto
          164 1062.020004272461 220 168 -220 173 214 callsubr
          -173 -338 hlineto
          338 -959 rmoveto
          -19 -24 -27.020004272460938 -68 -208 hhcurveto
          -83 -111 70 197 170 36 187 callgsubr
          228 162 15.009994506835938 -36.99000549316406 184 callgsubr
          12 hvcurveto
          -450.99000549316406 vlineto
          -734 -365 rmoveto
          -197 1105 197 -1105 vlineto
          endchar
        </CharString>
        <CharString name="dotaccent">
          -898 140 callsubr
          291 hstem
          -18 callgsubr
          303 vstem
          -18 callgsubr
          118 callsubr
          3 callsubr
          -95.00999450683594 -72 callsubr
          -83 -69 -87 vhcurveto
          endchar
        </CharString>
        <CharString name="dotaccent.cap">
          -898 1668.990005493164 76 callsubr
          hstem
          51.99000549316406 186 callsubr
          vstem
          52 -61 callgsubr
          75 82.99000549316406 77 -39 callgsubr
          vhcurveto
          endchar
        </CharString>
        <CharString name="dotlessi">
          0 1137.990005493164 12 callsubr
          -2 callsubr
          1137.990005493164 -91 callsubr
          endchar
        </CharString>
        <CharString name="e">
          -81 callsubr
          hstem
          -13 callsubr
          502.00999450683594 121 callsubr
          1025.990005493164 726 -107 callsubr
        </CharString>
        <CharString name="eacute">
          -81 callsubr
          hstem
          -13 callsubr
          502.00999450683594 121 callsubr
          960.9799957275391 191 callsubr
          -126 -136 -114.02000427246094 -124.99000549316406 rlinecurve
          81 callgsubr
          65 -921.9900054931641 -107 callsubr
        </CharString>
        <CharString name="ebreve">
          -81 callsubr
          152.00999450683594 -31 callgsubr
          hstemhm
          -13 callsubr
          -63.99000549316406 38 callsubr
          382.00999450683594 199 callsubr
          105 callgsubr
          58 callgsubr
          hintmask 00000000
          hintmask 11110110
          596.9900054931641 1308 rmoveto
          -9 callgsubr
          -1 hvcurveto
          58 callsubr
          hlineto
          69 callsubr
          hintmask 11111001
          429 -582 -107 callsubr
        </CharString>
        <CharString name="ecaron">
          -81 callsubr
          hstem
          -13 callsubr
          502.00999450683594 121 callsubr
          698.9799957275391 53 callsubr
          -134.97999572753906 21 callgsubr
          327 -594.9900054931641 -107 callsubr
        </CharString>
        <CharString name="ecircumflex">
          -81 callsubr
          hstem
          -13 callsubr
          502.00999450683594 121 callsubr
          598 181 callgsubr
          rmoveto
          -9 callsubr
          87 callgsubr
          30 callsubr
          rlineto
          427.99000549316406 -790 -107 callsubr
        </CharString>
        <CharString name="edieresis">
          -81 callsubr
          206.99998474121094 169 callgsubr
          hstemhm
          -13 callsubr
          -91.99000549316406 75 callsubr
          173.00999450683594 75 callsubr
          -148.99000549316406 58 callgsubr
          hintmask 00000000
          hintmask 11110110
          356.99000549316406 198 callgsubr
          rmoveto
          80 74.02000427246094 61 88 -30 callgsubr
          182 callgsubr
          58 -91 -76 -72 callsubr
          -3 callgsubr
          -30 callgsubr
          hvcurveto
          458 hmoveto
          181 callsubr
          54 callsubr
          -40 58 -50 callsubr
          -76.99000549316406 -78 -3 callgsubr
          -30 callgsubr
          hvcurveto
          hintmask 11111001
          211 -636.9900054931641 -107 callsubr
        </CharString>
        <CharString name="edotaccent">
          -81 callsubr
          178 callgsubr
          hstem
          -13 callsubr
          126.99998474121094 303 72.010009765625 121 callsubr
          585.9900054931641 140 callsubr
          rmoveto
          83 79 17 callgsubr
          440 -621 -107 callsubr
        </CharString>
        <CharString name="egrave">
          -81 callsubr
          hstem
          -13 callsubr
          502.00999450683594 121 callsubr
          595.9900054931641 -3 callsubr
          -112.00999450683594 128 -130.99000549316406 147.99000549316406 -95 117 callgsubr
          430 -567.9900054931641 -107 callsubr
        </CharString>
        <CharString name="eight">
          6 -97 callsubr
          38 callsubr
          1273.990005493164 153 hstemhm
          151.97999572753906 211 -152 202.99000549316406 500.00999450683594 202 -156.989990234375 217.99000549316406 hintmask 11010100
          1176.990005493164 399.99000549316406 rmoveto
          -77 callgsubr
          191 -163 111 -175 100 rrcurveto
          hintmask 11011000
          197 -35 callsubr
          82 174 127 callsubr
          vvcurveto
          209 -179.02000427246094 140 -262 -252.99000549316406 -211 -125.00999450683594 -246 -188.99000549316406 113.00999450683594 -113 138 -88 vhcurveto
          hintmask 11100100
          -223.99000549316406 -109 -86.02000427246094 -160.99000549316406 -149.02000427246094 vvcurveto
          -291 270.00999450683594 -109.97000122070312 252.99000549316406 vhcurveto
          hintmask 11010100
          269 236.02000427246094 136.99000549316406 279 -3 hvcurveto
          -508.99000549316406 1012 rmoveto
          hintmask 11011000
          157 39 callsubr
          -50 callsubr
          -135 -6 hvcurveto
          -31 callsubr
          105 callgsubr
          -68 -132 -151 -51 rrcurveto
          -151 87 -127.02000427246094 92 144 vvcurveto
          hintmask 11010100
          129 112 76 142 vhcurveto
          14.990005493164062 -1274 rmoveto
          hintmask 11100100
          -219 -101 99 75 callgsubr
          141 102.00999450683594 119.00999450683594 50 callsubr
          59 hvcurveto
          179 -95 172.02000427246094 -83 -170 vvcurveto
          hintmask 11010100
          -149 -137 -86 -139 vhcurveto
          endchar
        </CharString>
        <CharString name="ellipsis">
          746 -22 141 callsubr
          hstem
          186.97999572753906 114 callsubr
          375.02000427246094 306.99000549316406 375.00999450683594 114 callsubr
          vstem
          186.97999572753906 197 callgsubr
          rmoveto
          -88 3 79 callsubr
          -50 70 -58 callsubr
          hhcurveto
          -83 -80 -72 callsubr
          177 callgsubr
          683.0099945068359 hmoveto
          -88 2 79 callsubr
          -49 70 -96.00999450683594 hhcurveto
          -81.99000549316406 -81.02000427246094 -72 callsubr
          -95 3.0200042724609375 hvcurveto
          682 hmoveto
          -88 -24 callgsubr
          68.02000427246094 -63.97999572753906 76 hhcurveto
          86 77 callgsubr
          206 callgsubr
          -77 callgsubr
          hvcurveto
          81 -3 94 callgsubr
          70 -95 hhcurveto
          -83 -81 -72 callsubr
          -95 3 hvcurveto
          endchar
        </CharString>
        <CharString name="emacron">
          -81 callsubr
          269.00999450683594 163 hstemhm
          -13 callsubr
          7.0099945068359375 547 -52 58 callgsubr
          hintmask 00000000
          hintmask 11110100
          872 68 callsubr
          hintmask 11111010
          38 callsubr
          -862 -107 callsubr
        </CharString>
        <CharString name="emdash">
          1042 682.9799957275391 177 hstem
          188 callgsubr
          1863 208 callgsubr
          1863 177 -1863 vlineto
          endchar
        </CharString>
        <CharString name="endash">
          391 682.9799957275391 177 hstem
          188 callgsubr
          1212 208 callgsubr
          1212.009994506836 177 -1212.009994506836 vlineto
          endchar
        </CharString>
        <CharString name="eng">
          -22 -507 141 callgsubr
          1324.989990234375 184 36 callgsubr
          493.02000427246094 -67 callgsubr
          -52 callsubr
          1137.990005493164 rmoveto
          202 callgsubr
          vlineto
          91.00999450683594 66 121 35 73 -77 callsubr
          rrcurveto
          174.02000427246094 49 callsubr
          34 -35 callgsubr
          -186 vvcurveto
          -755.9700012207031 vlineto
          -237.02000427246094 -15 callgsubr
          -70 -117 -24 -63 113 callsubr
          7 -20.990005493164062 vhcurveto
          -152 vlineto
          -8.009994506835938 18 98 -6 37.99000549316406 hhcurveto
          210 107.00999450683594 173 318.02000427246094 hvcurveto
          729.9799957275391 vlineto
          -1 333.99000549316406 -92 142 callgsubr
          -246 -6 -149 -4.0200042724609375 -164 -76.99000549316406 -85 -58 -1 120 rcurveline
          -195.02000427246094 hlineto
          endchar
        </CharString>
        <CharString name="eogonek">
          -178 138 callgsubr
          -56 callgsubr
          371.99000549316406 146 332 160 callgsubr
          -13 callsubr
          200.99998474121094 216 85.010009765625 121 callsubr
          1025.990005493164 726 0 callgsubr
          285 -184.02000427246094 148.99000549316406 -227 -4 rrcurveto
          -333.99000549316406 -6 -175 -246 -332 vvcurveto
          -370 181 -217.97999572753906 323.99000549316406 35 37 -77 callsubr
          5 36.99000549316406 vhcurveto
          -110 -69 callgsubr
          -85 -132 -77 callsubr
          -95 rrcurveto
          -137 1 105 -73 173 callgsubr
          57 hvcurveto
          118 vlineto
          -17.020004272460938 -24 callsubr
          -50 214 callgsubr
          -70 -56 18.990005493164062 -47 callsubr
          -2 hvcurveto
          -77 callgsubr
          97 98 147 140.99000549316406 88.97999572753906 rrcurveto
          -37 callgsubr
          hlineto
          6 4 5 4 5 113 callsubr
          -42 -20 callsubr
          rcurveline
          -32.99000549316406 -55.99000549316406 -152 -29 -76 hhcurveto
          -186 -149 -36 callsubr
          268 -12.990005493164062 hvcurveto
          7 0 6 -1 7 vhcurveto
          703 hlineto
          11 51 0 67.02000427246094 86 vvcurveto
          -205.99000549316406 -58 rmoveto
          -502 hlineto
          245.99000549316406 -8 callsubr
          113.00999450683594 -47 callsubr
          136.99000549316406 hhcurveto
          200 36 -169 -163 -10 hvcurveto
          endchar
        </CharString>
        <CharString name="equal">
          132 callsubr
          114 callgsubr
          1116 rmoveto
          -167.02000427246094 915 215 callgsubr
          -915 vlineto
          -517 vmoveto
          -166 915 166 -915 vlineto
          endchar
        </CharString>
        <CharString name="estimated">
          72 -97 callsubr
          127.97000122070312 514.010009765625 142 459 128.97999572753906 hstem
          104 277.99000549316406 626.989990234375 259.99000549316406 vstem
          1257.979995727539 625.9900054931641 rmoveto
          11 51 0 69 -47 callsubr
          vvcurveto
          -11 328.99000549316406 -235.99000549316406 200 -291 104 callsubr
          rrcurveto
          -422.00999450683594 56 callsubr
          -204.99000549316406 -286 -392 vvcurveto
          -430 228.99000549316406 -256.97999572753906 394.02000427246094 187 callgsubr
          196.02000427246094 44.99000549316406 60.99000549316406 85 vhcurveto
          -48 122 rlineto
          -37.99000549316406 -69 callgsubr
          -148 -62.02000427246094 -150 hhcurveto
          -153 -130.99000549316406 42 116 -82 hvcurveto
          356 875.9900054931641 vlineto
          -540 601 rmoveto
          146 -55 callsubr
          -45.02000427246094 -69 callgsubr
          54.99000549316406 hvcurveto
          -346.99000549316406 -627 294.99000549316406 vlineto
          117 78 callsubr
          122 47 135 hhcurveto
          endchar
        </CharString>
        <CharString name="eth">
          -111 216 callsubr
          150.97999572753906 865.9900054931641 164 hstem
          39 callsubr
          218 582 218.99000549316406 vstem
          674 1564 rmoveto
          -13 10 rlineto
          60.99000549316406 63 71 84.00999450683594 0 vvcurveto
          -117 168 callgsubr
          rlineto
          0 -76 -58 callsubr
          -58 -63.02000427246094 vhcurveto
          -81 48 57 callsubr
          40 -97.02000427246094 30 -52 -124.99000549316406 rcurveline
          75 -15 callgsubr
          72 -37 68 -24 callsubr
          -133 -143 rcurveline
          115 -50 callsubr
          134 149 117 -99 95 callgsubr
          -127 54 -148.99000549316406 rlinecurve
          45 -54 -72 29 -88 hhcurveto
          -304.99000549316406 1 -206 -227 -375 vvcurveto
          -356.99000549316406 199 -227 313 113 callsubr
          vhcurveto
          305 4 202 -15 callsubr
          424 vvcurveto
          402 -158 334.99000549316406 128 callsubr
          219.02000427246094 vhcurveto
          221 -1010.0200042724609 rmoveto
          -261 -109.02000427246094 -169 -169.99000549316406 -202.02000427246094 -100.99000549316406 185 252 251 -51 callsubr
          177.99000549316406 205 180 82 -72 callsubr
          -62 13 vhcurveto
          9 -106 -4 -85.00999450683594 -104 vvcurveto
          endchar
        </CharString>
        <CharString name="exclam">
          -699 -22 141 callsubr
          hstemhm
          -18 callsubr
          114 callsubr
          -259 222.02000427246094 hintmask 10100000
          181.99000549316406 123 callsubr
          hintmask 11000000
          -35 4 callsubr
          endchar
        </CharString>
        <CharString name="exclamdbl">
          85 -22 141 callsubr
          hstemhm
          32 callsubr
          114 callsubr
          -259.010009765625 222.02000427246094 425 114 callsubr
          -259.00001525878906 222 hintmask 10101000
          111 callsubr
          123 callsubr
          696.0099945068359 hmoveto
          28 -1274 rlineto
          195.99000549316406 hlineto
          24 1274 rlineto
          -248 hlineto
          hintmask 11010000
          -731.0099945068359 4 callsubr
          696.0099945068359 hmoveto
          -88 -24 callgsubr
          201 callsubr
          -63.97999572753906 182 callsubr
          hhcurveto
          -47 callsubr
          77 callgsubr
          206 callgsubr
          -77 callgsubr
          hvcurveto
          81 -3 94 callgsubr
          70 -96.00999450683594 hhcurveto
          -82 -81 -72 callsubr
          -95 3 hvcurveto
          endchar
        </CharString>
        <CharString name="exclamdown">
          -699 1039.990005493164 326 hstemhm
          -18 callsubr
          114 callsubr
          -270.97999572753906 221.97999572753906 hintmask 00000000
          hintmask 11000000
          454.97999572753906 1213.990005493164 rmoveto
          88 -77 callgsubr
          152 callsubr
          64 -77 hhcurveto
          -86 167 callsubr
          -76 -99 -24 callgsubr
          hvcurveto
          -81 3.0200042724609375 32 callgsubr
          -70 95 callgsubr
          hhcurveto
          82 81 79 95 -3 hvcurveto
          hintmask 10100000
          -35 -1649.990005493164 rmoveto
          -28 1273.979995727539 rlineto
          -196 hlineto
          -24 -1273.979995727539 rlineto
          95 callsubr
          hlineto
          endchar
        </CharString>
        <CharString name="f">
          -490 973.9799957275391 166 366.010009765625 175.97999572753906 hstem
          247.99000549316406 -85 callgsubr
          endchar
        </CharString>
        <CharString name="f_f">
          321 15 callsubr
          590.989990234375 220.00999450683594 vstem
          -84 callgsubr
          endchar
        </CharString>
        <CharString name="f_f_i">
          927 80 callgsubr
          590.989990234375 220.00999450683594 494.010009765625 303 -261 -93 callgsubr
          hintmask 10111010
          -84 callgsubr
          hintmask 11011100
          714.0200042724609 508 rmoveto
          -83 -11 callgsubr
          -52 168 callsubr
          -51 callgsubr
          79.02000427246094 145 callgsubr
          hintmask 10111010
          134 callgsubr
        </CharString>
        <CharString name="f_f_l">
          934 15 callsubr
          590.989990234375 220.00999450683594 540.010009765625 219.99000549316406 vstem
          -84 callgsubr
          760.0200042724609 690.0200042724609 12 callgsubr
          endchar
        </CharString>
        <CharString name="ffi_dflt">
          927 130 callgsubr
          150.99000549316406 302.97999572753906 -260.99000549316406 220.00999450683594 441.00001525878906 -93 callgsubr
          590.9999847412109 220.00999450683594 hintmask 10101110
          -48 callgsubr
          218 callsubr
          hmoveto
          -973.9900054931641 220.02000427246094 38 callgsubr
          77 callsubr
          166 128 callsubr
          149 vlineto
          145 68 72.00999450683594 95.00999450683594 109 callsubr
          85 callgsubr
          41 vhcurveto
          174 vlineto
          8 -21 48 callsubr
          -62.02000427246094 hhcurveto
          -182.99000549316406 -230 -101.99000549316406 -341 hvcurveto
          -99 vlineto
          -173 189 callgsubr
          173 vlineto
          hintmask 11010110
          -1513.990005493164 508 -70 callsubr
          hintmask 10101110
          41.99000549316406 -344 -91 callsubr
          endchar
        </CharString>
        <CharString name="fi">
          116 80 callgsubr
          493.99998474121094 303 -260.989990234375 -93 callgsubr
          hintmask 10110100
          95 callsubr
          973.9900054931641 -101 callsubr
          hintmask 11011000
          714 508 rmoveto
          -83 66 -52 75 211 callsubr
          -95.00999450683594 -72 callsubr
          -83 -69 -87 vhcurveto
          hintmask 10110100
          134 callgsubr
        </CharString>
        <CharString name="fi_trk">
          116 130 callgsubr
          150.99000549316406 302.97999572753906 -260.99000549316406 220.00999450683594 441.00001525878906 -93 callgsubr
          hintmask 10101100
          -48 callgsubr
          hintmask 11010100
          -703 508 -70 callsubr
          hintmask 10101100
          41.99000549316406 -344 -91 callsubr
          endchar
        </CharString>
        <CharString name="five">
          -74 -348.99000549316406 159 716.9800109863281 164 371 189.99000549316406 hstem
          855.9799957275391 224 vstem
          203.97999572753906 -335.99000549316406 rmoveto
          -11 35 56 -2 33 hhcurveto
          491.00999450683594 6 261 294.99000549316406 285 vvcurveto
          277 -157 177 -296 -70 -78 -11 -18 -81 vhcurveto
          39 400 rlineto
          578 hlineto
          22 189.99000549316406 rlineto
          -770.9900054931641 hlineto
          -56 -743 50 -30 rlineto
          31 98 93 17 78 callsubr
          hhcurveto
          228 98 -103 -201 -239.97999572753906 -246.99000549316406 -174 -341.00999450683594 1 hvcurveto
          -21 -20.990005493164062 152 callgsubr
          1 -21.020004272460938 hvcurveto
          -1 -147.99000549316406 rlineto
          endchar
        </CharString>
        <CharString name="fl">
          123 15 callsubr
          539.9999847412109 -85 callgsubr
          759.9900054931641 690.0200042724609 12 callgsubr
          endchar
        </CharString>
        <CharString name="florin">
          -132 971.9799957275391 168.00999450683594 366.9800109863281 178 hstemhm
          216.99000549316406 840 -619.010009765625 218.5 hintmask 11100000
          421.99000549316406 971.9799957275391 rmoveto
          -112 -1327.979995727539 rlineto
          215 hlineto
          111 1327.979995727539 rlineto
          299 hlineto
          13 168.02000427246094 rlineto
          hintmask 11010000
          -299 hlineto
          14.990005493164062 128 rlineto
          32 callsubr
          22.020004272460938 87.99000549316406 51 105 hhcurveto
          -55 callsubr
          55.99000549316406 -7.9900054931640625 -11 19 hvcurveto
          13 179 rlineto
          7 184 callgsubr
          -46 11 26 callgsubr
          hhcurveto
          -227 -195 -128 -353 59 callgsubr
          hvcurveto
          -8 -64 -209 -54 -8 52 callgsubr
          rlineto
          hintmask 11100000
          205 hlineto
          endchar
        </CharString>
        <CharString name="four">
          38 0 169.97999572753906 hstem
          819.9900054931641 -67 callgsubr
          1270.990005493164 169.97999572753906 rmoveto
          -231 433.00999450683594 -202 hlineto
          -17.990005493164062 -433.00999450683594 rlineto
          -460 hlineto
          109 callsubr
          151 466 894.0200042724609 -135.99000549316406 -36 callsubr
          rlineto
          -38 callsubr
          hlineto
          -583.9900054931641 -1194.990005493164 53.99000549316406 -104 rlineto
          650.0200042724609 -375.99000549316406 220 375.99000549316406 231 169.97999572753906 hlineto
          endchar
        </CharString>
        <CharString name="four.numr">
          -54 callgsubr
        </CharString>
        <CharString name="fraction">
          -275 0 1529.990005493164 hstem
          50 callsubr
          739 vstem
          50 callsubr
          hmoveto
          89 callgsubr
          -538.9900054931641 -1530 rlineto
          endchar
        </CharString>
        <CharString name="franc">
          -208 243.99000549316406 182.99000549316406 246.00999450683594 178.99000549316406 491.00999450683594 178.99000549316406 hstem
          -8 callgsubr
          234 vstem
          -9.990005493164062 426.99000549316406 rmoveto
          -182.99000549316406 204.97999572753906 -244 234 244 251 182.99000549316406 -251 246 484 179 -484 491.00999450683594 645 179 -879 -1095 -204.97999572753906 vlineto
          endchar
        </CharString>
        <CharString name="g">
          -87 callsubr
          -44 callsubr
          428 29 callsubr
          hintmask 1111001010000000
          1186.979995727539 1147.990005493164 -104 callgsubr
        </CharString>
        <CharString name="gbreve">
          -87 callsubr
          152.010009765625 -31 callgsubr
          -44 callsubr
          -127.989990234375 38 callsubr
          382.00999450683594 199 callsubr
          -130.00001525878906 29 callsubr
          hintmask 0000000000000000
          hintmask 1111010001100000
          596.9900054931641 1308 rmoveto
          -9 callgsubr
          -1 hvcurveto
          58 callsubr
          hlineto
          69 callsubr
          589.9900054931641 -160 -63 callsubr
          hintmask 1110110100100000
          -91 callgsubr
          hintmask 1111010010010000
          -84 callsubr
          hintmask 1111011000001000
          -95 callgsubr
          hintmask 1111010010010000
          -100 callsubr
          hintmask 1111010001100000
          175 vlineto
          hintmask 1110110100010000
          -65 callsubr
          -70 callgsubr
          -181 26 callgsubr
          -55 -146 hvcurveto
          -30 -530.9799957275391 rmoveto
          65 callsubr
          hlineto
          hintmask 1111011000001000
          -88 callsubr
          hintmask 1110110100010000
          7 callgsubr
        </CharString>
        <CharString name="gcaron">
          -87 callsubr
          -44 callsubr
          428 29 callsubr
          hintmask 1111001010000000
          698.9799957275391 53 callsubr
          -134.97999572753906 21 callgsubr
          488 -173 -104 callgsubr
        </CharString>
        <CharString name="gcircumflex">
          -87 callsubr
          -44 callsubr
          428 29 callsubr
          hintmask 1111001010000000
          598 181 callgsubr
          rmoveto
          -9 callsubr
          87 callgsubr
          30 callsubr
          rlineto
          588.9799957275391 -368 -104 callgsubr
        </CharString>
        <CharString name="gcommaaccent">
          -87 callsubr
          -44 callsubr
          89.010009765625 32 callsubr
          150.99998474121094 29 callsubr
          hintmask 1111001011000000
          567.9900054931641 1323.990005493164 rmoveto
          158 92 rlineto
          50 vlineto
          -41 9 -15 callgsubr
          64 51 vvcurveto
          64 19.009994506835938 57 20 24 vhcurveto
          57 callgsubr
          vlineto
          -75.02000427246094 41 rlineto
          -62 -28 57 callsubr
          -99 -139 vvcurveto
          -111 47.99000549316406 -78 49 -23 vhcurveto
          618.9900054931641 -176 -63 callsubr
          hintmask 1110101011000000
          -91 callgsubr
          hintmask 1111000111000000
          -84 callsubr
          hintmask 1111010010100000
          -95 callgsubr
          hintmask 1111000111000000
          -100 callsubr
          hintmask 1111001011000000
          175 vlineto
          -65 callsubr
          hvcurveto
          hintmask 1110101011000000
          -70 callgsubr
          vhcurveto
          hintmask 1111001011000000
          -181 26 callgsubr
          -55 -146 vhcurveto
          -30 -530.9799957275391 rmoveto
          65 callsubr
          hlineto
          hintmask 1111010010100000
          -88 callsubr
          hintmask 1111001011000000
          7 callgsubr
        </CharString>
        <CharString name="gdotaccent">
          -87 callsubr
          212 callsubr
          -44 callsubr
          63 303 62 29 callsubr
          hintmask 1111010101100000
          585.9900054931641 140 callsubr
          rmoveto
          83 79 17 callgsubr
          600.9900054931641 -199 -63 callsubr
          hintmask 1110110101100000
          -91 callgsubr
          hintmask 1111010011100000
          -84 callsubr
          hintmask 1111011001010000
          -95 callgsubr
          hintmask 1111010011100000
          -100 callsubr
          hintmask 1111010101100000
          175 vlineto
          -65 callsubr
          hvcurveto
          hintmask 1110110101100000
          -70 callgsubr
          vhcurveto
          hintmask 1111010101100000
          -181 26 callgsubr
          -55 -146 vhcurveto
          -30 -530.9799957275391 rmoveto
          65 callsubr
          hlineto
          hintmask 1111011001010000
          -88 callsubr
          hintmask 1111010101100000
          7 callgsubr
        </CharString>
        <CharString name="germandbls">
          -33 -97 callsubr
          38 callsubr
          835.9799957275391 129 320.010009765625 -60 callsubr
          hstemhm
          173.99000549316406 -93 callgsubr
          275.99998474121094 202.99000549316406 6.0099945068359375 218 -84 223 hintmask 10111010
          872.9799957275391 876.9900054931641 rmoveto
          hintmask 11110100
          137 224 201 callsubr
          222 vvcurveto
          179 -170 97 -208 -258.00999450683594 -212.99000549316406 -132 -304 -58 vhcurveto
          -154 -40 rlineto
          -129 86 callsubr
          -8 vlineto
          -965.9799957275391 220 948 vlineto
          366 121 109 166.99000549316406 126.02000427246094 70.99000549316406 -48 -100 vhcurveto
          -175 -209 -22 callgsubr
          -188 vvcurveto
          hintmask 10111010
          -315.97999572753906 341.02000427246094 -25 -24 callgsubr
          -221 vhcurveto
          52 callgsubr
          -85 -36.99000549316406 -81 -123 -72 callsubr
          51 callsubr
          21.009994506835938 -37 vhcurveto
          -173 vlineto
          -17 39 91.02000427246094 -97 callsubr
          -10 callgsubr
          hhcurveto
          195 202 85.97000122070312 243.02000427246094 hvcurveto
          332 -363 -8 callsubr
          206 vvcurveto
          endchar
        </CharString>
        <CharString name="grave">
          -706 1293.979995727539 489 hstem
          -18 callgsubr
          495 vstem
          433.99000549316406 -3 callsubr
          -112 128 -130.99000549316406 20 callsubr
          endchar
        </CharString>
        <CharString name="grave.cap">
          -704 1572.979995727539 406.99000549316406 hstem
          -18 callgsubr
          489 vstem
          447 103 callsubr
          92 62 callgsubr
          77 -87 111 callsubr
          -153 97.02000427246094 -34 rlinecurve
          endchar
        </CharString>
        <CharString name="greater">
          67 251.99000549316406 1044 hstem
          221 callsubr
          966 vstem
          221 callsubr
          1295.990005493164 rmoveto
          -205 vlineto
          731.0200042724609 -318 -731.0200042724609 -313.02000427246094 rlineto
          -208 vlineto
          966 444 rlineto
          38 callsubr
          vlineto
          -966 446.00999450683594 rlineto
          endchar
        </CharString>
        <CharString name="greaterequal">
          67 0 207 callgsubr
          237.99000549316406 969.9900054931641 vstem
          238 1280.979995727539 rmoveto
          -202 vlineto
          740.9900054931641 -305.99000549316406 -740.9900054931641 -306.02000427246094 rlineto
          -203 vlineto
          970 431 rlineto
          155 vlineto
          -970 431 rlineto
          -1280.979995727539 vmoveto
          212 callgsubr
        </CharString>
        <CharString name="gtilde">
          -87 callsubr
          188.02000427246094 166.99000549316406 -29 165.99000549316406 -44 callsubr
          428 29 callsubr
          hintmask 0000000000000000
          hintmask 1111001010100000
          445.99000549316406 102 callsubr
          hintmask 1111010010100000
          171 callgsubr
          97 86 106.99000549316406 51.02000427246094 hvcurveto
          -86.02000427246094 72.00999450683594 rlineto
          -45 -41 -52 -53 57 callsubr
          hhcurveto
          hintmask 1111001010100000
          -102.99000549316406 154 callgsubr
          136.99000549316406 -160.99000549316406 hhcurveto
          -121.02000427246094 -104 -58 callsubr
          -100 -45 hvcurveto
          84.99000549316406 70 callsubr
          96 callgsubr
          54 80 hhcurveto
          hintmask 1111010010100000
          740.9900054931641 -334 -63 callsubr
          hintmask 1110110010100000
          -91 callgsubr
          hintmask 1111010001100000
          -84 callsubr
          hintmask 1111010100010000
          -95 callgsubr
          hintmask 1111010001100000
          -100 callsubr
          hintmask 1111010010100000
          175 vlineto
          hintmask 1110110010100000
          -65 callsubr
          -70 callgsubr
          -181 26 callgsubr
          -55 -146 hvcurveto
          -30 -530.9799957275391 rmoveto
          65 callsubr
          hlineto
          hintmask 1111010100010000
          -88 callsubr
          hintmask 1110110010100000
          7 callgsubr
        </CharString>
        <CharString name="guillemotleft">
          635 176 callgsubr
          200 callsubr
          1430.990005493164 vstem
          887.9900054931641 1132.990005493164 rmoveto
          43 callsubr
          -57 163 rlineto
          787.9900054931641 -163 rmoveto
          -57 163 -642.9900054931641 -430 rlineto
          -184.02000427246094 vlineto
          642.9900054931641 -414.99000549316406 57 -1 callsubr
          -483.99000549316406 352.00999450683594 483.99000549316406 355 rlineto
          endchar
        </CharString>
        <CharString name="guillemotright">
          635 176 callgsubr
          258.99000549316406 1430.990005493164 vstem
          258.99000549316406 969.9900054931641 rmoveto
          44 callsubr
          -57 -163 rlineto
          788 163 rmoveto
          -57.02000427246094 -163 484 -355 -484 -352.00999450683594 57.02000427246094 -158.99000549316406 642.9900054931641 414.99000549316406 rlineto
          184.02000427246094 vlineto
          -642.9900054931641 430 rlineto
          endchar
        </CharString>
        <CharString name="guilsinglleft">
          -97 176 callgsubr
          200 callsubr
          700 vstem
          944.9900054931641 969.9900054931641 rmoveto
          -57 163 43 callsubr
          rlineto
          endchar
        </CharString>
        <CharString name="guilsinglright">
          -97 176 callgsubr
          258.99000549316406 700 vstem
          315.97999572753906 1132.990005493164 rmoveto
          -57 -163 44 callsubr
          rlineto
          endchar
        </CharString>
        <CharString name="h">
          -12 213 callsubr
          36 callgsubr
          503.02000427246094 -67 callgsubr
          768 1157 46 callgsubr
          475.02000427246094 -220 -1664 -60 callgsubr
        </CharString>
        <CharString name="hbar">
          -12 213 callsubr
          127.010009765625 131.99000549316406 36 callgsubr
          503.02000427246094 -67 callgsubr
          768 1157 46 callgsubr
          95 232.02000427246094 132 -232.02000427246094 248.02000427246094 -220 -248.02000427246094 -140 -132 140 -1283.990005493164 -60 callgsubr
        </CharString>
        <CharString name="hcircumflex">
          -12 213 callsubr
          677 155.99000549316406 36 callgsubr
          503.02000427246094 -67 callgsubr
          753.9900054931641 128 callgsubr
          rmoveto
          216 -202 144 -74 callsubr
          101 callsubr
          rlineto
          39 callgsubr
          -676.9900054931641 46 callgsubr
          475.02000427246094 -220 -1664 -60 callgsubr
        </CharString>
        <CharString name="hungarumlaut">
          -266 1318.990005493164 478.97999572753906 hstem
          41.97999572753906 921 vstem
          41.97999572753906 1390 rmoveto
          103.02000427246094 -71 76 51 180.99000549316406 212 61 105 rlinecurve
          -162 110.99000549316406 -259.00999450683594 -407.99000549316406 rlineto
          499.02000427246094 hmoveto
          -10 callgsubr
          -71 81 48 188 215 52 97 rlinecurve
          -155 110 -267 -398.99000549316406 rlineto
          endchar
        </CharString>
        <CharString name="hungarumlaut.cap">
          -339 1640.979995727539 359.00999450683594 hstem
          55.99000549316406 846.9900054931641 vstem
          55.99000549316406 27 callsubr
          -172.02000427246094 87 -5 -13 -194.99000549316406 -270.00999450683594 -7 56 callsubr
          rlinecurve
          467.99000549316406 hmoveto
          125.00999450683594 -69.02000427246094 78 46.02000427246094 105 115 70.97999572753906 131 callgsubr
          endchar
        </CharString>
        <CharString name="hyphen">
          41 callsubr
        </CharString>
        <CharString name="i">
          -83 callgsubr
        </CharString>
        <CharString name="i.cy">
          -83 callgsubr
        </CharString>
        <CharString name="i.dot">
          -83 callgsubr
        </CharString>
        <CharString name="iacute">
          0 1782.979995727539 12 callsubr
          -61 callsubr
          1384 rmoveto
          -86 callsubr
          207 callsubr
          -98 -138 149 callgsubr
          -136 -114 -124.99000549316406 rlinecurve
          19.990005493164062 -246 -91 callsubr
          endchar
        </CharString>
        <CharString name="ibreve">
          1307.990005493164 -31 callgsubr
          hstem
          -39.99000549316406 38 callsubr
          78.97999572753906 220.00999450683594 -51 callgsubr
          199 callsubr
          vstem
          -40 162 callsubr
          -190 -16 130.99000549316406 -187 227.99000549316406 hhcurveto
          217 143 187 190 -17.020004272460938 hvcurveto
          -150 hlineto
          -27 -1 -37 callgsubr
          -178 -190.02000427246094 hhcurveto
          -191 2 178 27 -1 hvcurveto
          58 callsubr
          hlineto
          232.97999572753906 -547 -91 callsubr
          endchar
        </CharString>
        <CharString name="icircumflex">
          0 1681.979995727539 12 callsubr
          -71 1349 rmoveto
          -20 callsubr
          27 callgsubr
          -275.97999572753906 129 callsubr
          rlineto
          263.97999572753906 -211 -91 callsubr
          endchar
        </CharString>
        <CharString name="idieresis">
          198 callgsubr
          169 callgsubr
          hstemhm
          -55.99000549316406 284.97999572753906 -36.00999450683594 220.00999450683594 -34.99998474121094 75 callsubr
          hintmask 00000000
          hintmask 11010000
          -55.99000549316406 1492.990005493164 rmoveto
          -80 -25 callsubr
          -66 callgsubr
          72 48 callgsubr
          -39 58 -91.02000427246094 -75.97999572753906 -72 callsubr
          148 callsubr
          433.99000549316406 hmoveto
          -80 58.99000549316406 -66 callgsubr
          72 61 callgsubr
          vhcurveto
          hintmask 10100000
          -185.02000427246094 -355 -91 callsubr
          endchar
        </CharString>
        <CharString name="igrave">
          0 1782.979995727539 12 callsubr
          302 -3 callsubr
          -112 128 -131 -50 callgsubr
          -58 callsubr
          85 callsubr
          66.00999450683594 -100.99000549316406 236.99000549316406 -216 81 -37 rlinecurve
          -109.02000427246094 -156 -91 callsubr
          endchar
        </CharString>
        <CharString name="ij">
          -121 -507 154 1699.990005493164 3 callgsubr
          348.00001525878906 303 -265.010009765625 -22 callsubr
          hintmask 11101000
          -53 callgsubr
          610 hmoveto
          -83 -11 callgsubr
          -52 75 83 53 callgsubr
          -95 -38 callsubr
          -82.99000549316406 -69 -87 vhcurveto
          hintmask 11010100
          -568.0200042724609 -344 -36 callgsubr
        </CharString>
        <CharString name="ij_acutecomb">
          -121 -507 154 hstem
          -12 callgsubr
          385.99000549316406 -67 callgsubr
          -61 callsubr
          1384 rmoveto
          -86 callsubr
          207 callsubr
          -98 -138 149 callgsubr
          -136 -114 -124.99000549316406 rlinecurve
          600 hmoveto
          -86 callsubr
          207 callsubr
          219 callgsubr
          -138 -126 -2 callgsubr
          -580.0200042724609 -246 -36 callgsubr
        </CharString>
        <CharString name="imacron">
          1424.990005493164 163 12 callsubr
          51 callsubr
          124 callgsubr
          162 -450 -91 callsubr
          endchar
        </CharString>
        <CharString name="infinity">
          503 76 callgsubr
          152 466.989990234375 164 hstem
          155 callsubr
          198 1259.989990234375 198 vstem
          1314 1007.9799957275391 rmoveto
          -175 -31 callsubr
          -141 -121 -50 callsubr
          149 callgsubr
          rrcurveto
          129 -95.99000549316406 -115 121 -203 hhcurveto
          -229 -191 -128 -278 -200.99000549316406 158 -179.02000427246094 261 113 callsubr
          hvcurveto
          179 -24 callgsubr
          140 113.00999450683594 90.99000549316406 -20 callsubr
          rrcurveto
          -124.99000549316406 92 108.02000427246094 -117 197 hhcurveto
          270.99000549316406 159 150 256 185 -127 196.02000427246094 -289 -4.0200042724609375 hvcurveto
          -798 -629.9900054931641 rmoveto
          -167 -77 106.99000549316406 128 117 -30 callgsubr
          114 170 129 86 -134 -110 75 hvcurveto
          -127 -84.99000549316406 -91 -58 callsubr
          -112 hhcurveto
          818 -1 rmoveto
          -143 -102.00999450683594 133 185 callgsubr
          -80 hvcurveto
          128 83 -36 callsubr
          92.02000427246094 114.00999450683594 hhcurveto
          157 85 -106 -124 -121 -65 -115 -133 hvcurveto
          endchar
        </CharString>
        <CharString name="integral">
          -259 -518 164 1874.979995727539 164 hstem
          236.99000549316406 200.99000549316406 205.00999450683594 199 vstem
          110.97999572753906 -395 rmoveto
          -62 53 126.02000427246094 -61 148.99000549316406 hhcurveto
          302 101 208 280 hvcurveto
          429.99000549316406 -404 403.99000549316406 398.00999450683594 vvcurveto
          191 59 128 164 94 67.99000549316406 -35 -41 29 vhcurveto
          112 113.00999450683594 rlineto
          168 callgsubr
          -59 -108 37 -131 hhcurveto
          -291 -138 -204 -278 hvcurveto
          -427.00999450683594 406 -408 -397.97999572753906 vvcurveto
          -263 -82 -22 callgsubr
          -148.99000549316406 -117 -74 -11 callgsubr
          217 callgsubr
          -27.009994506835938 vhcurveto
          -83 -134 rlineto
          endchar
        </CharString>
        <CharString name="iogonek">
          -512 148 1710.990005493164 291 hstemhm
          23 200 callgsubr
          -84.989990234375 303 -264.010009765625 220.00999450683594 hintmask 00000000
          hintmask 11010000
          294.99000549316406 140 callsubr
          rmoveto
          83 79 17 callgsubr
          hintmask 11100000
          82 -1710.979995727539 rmoveto
          -70 221 callgsubr
          203 callgsubr
          -77 callgsubr
          97 47 84.99000549316406 104 66 rrcurveto
          hintmask 11001000
          25 1137.990005493164 -220.02000427246094 -43 callgsubr
          hlineto
          hintmask 11100000
          28.020004272460938 133 callgsubr
          -24 callgsubr
          114.00999450683594 -83.00999450683594 150 hhcurveto
          -36 callsubr
          -47 callsubr
          23 callgsubr
          -44 -49.99000549316406 214 callgsubr
          endchar
        </CharString>
        <CharString name="itilde">
          1344 13 callgsubr
          -12 callgsubr
          hintmask 00000000
          hintmask 01100000
          -116 1452.990005493164 rmoveto
          84.99000549316406 135 callgsubr
          hintmask 10100000
          197 callsubr
          50 callgsubr
          84 callgsubr
          97 -34 callgsubr
          hintmask 01100000
          -103 -31 136.99000549316406 -161 hhcurveto
          -121 -103.99000549316406 -58 callsubr
          -100 -45 hvcurveto
          hintmask 10100000
          308.97999572753906 -315 -91 callsubr
          endchar
        </CharString>
        <CharString name="j">
          -727 137 callgsubr
          141 callgsubr
          303 -265.010009765625 220.00999450683594 hintmask 00000000
          hintmask 11100000
          141 callgsubr
          118 callsubr
          3 callsubr
          -95.00999450683594 -72 callsubr
          -83 -69 -87 vhcurveto
          -233.97999572753906 -1812.990005493164 42 callgsubr
          51 callsubr
          hhcurveto
          hintmask 11010000
          -13 callgsubr
          vhcurveto
          hintmask 11100000
          -34 -11 callsubr
          12 10 -21 hvcurveto
          endchar
        </CharString>
        <CharString name="jcircumflex">
          -727 -507 154 12 callsubr
          -69 callgsubr
          1349 rmoveto
          125.97000122070312 -56.02000427246094 249.02000427246094 223 232 -222 134.97999572753906 56 -267.97999572753906 332 rlineto
          -198 hlineto
          -275.97999572753906 129 callsubr
          rlineto
          -12 -1679.990005493164 42 callgsubr
          51 callsubr
          hhcurveto
          -13 callgsubr
          -34 -11 callsubr
          12 10 -21 vhcurveto
          endchar
        </CharString>
        <CharString name="k">
          -138 0 1660.979995727539 hstem
          224 callgsubr
          vstem
          901 hmoveto
          250 hlineto
          -483 691 -6 callgsubr
          endchar
        </CharString>
        <CharString name="kcommaaccent">
          -138 -560 2220.990005493164 hstem
          224 callgsubr
          171.99998474121094 188 vstem
          668 691 rmoveto
          -6 callgsubr
          250 hlineto
          -483 691 rlineto
          -17 -773 80 callsubr
          -20 -24 vhcurveto
          -15 callgsubr
          vlineto
          75 -41 rlineto
          62 92 callgsubr
        </CharString>
        <CharString name="kgreenlandic">
          -132 0 1139.990005493164 hstem
          182.47999572753906 218.52000427246094 vstem
          916.9900054931641 hmoveto
          251 hlineto
          -478 657.9799957275391 438.99000549316406 482.02000427246094 rlineto
          -250.99000549316406 hlineto
          -480.00999450683594 -561 3 79.99000549316406 rlineto
          481.02000427246094 -220.02000427246094 vlineto
          3 -1140 rlineto
          220 189.99000549316406 hlineto
          -6 146 153 168 366 -503.99000549316406 rlineto
          endchar
        </CharString>
        <CharString name="l">
          -688 0 1664 209 callsubr
          vstem
          197 1664 12 callgsubr
          endchar
        </CharString>
        <CharString name="lacute">
          -670 0 1979.979995727539 209 callsubr
          vstem
          150 callgsubr
          -62 callgsubr
          -331 -296 -7 -6 rlinecurve
          13 -133 rmoveto
          -1531.990005493164 220 1531.990005493164 -220 vlineto
          endchar
        </CharString>
        <CharString name="lcaron">
          -511 0 1686.990005493164 209 callsubr
          200.99998474121094 112 callsubr
          vstem
          577.9900054931641 1067.990005493164 rmoveto
          164 callgsubr
          -17.990005493164062 -51 callsubr
          -44 96 callsubr
          216 callsubr
          -48 -21 -76 vhcurveto
          -46 callsubr
          -28 rlineto
          -380.99000549316406 596.0099945068359 12 callgsubr
          endchar
        </CharString>
        <CharString name="lcommaaccent">
          -688 -560 2224 hstemhm
          120 callgsubr
          -175.99000549316406 188 hintmask 11000000
          197 1664 12 callgsubr
          5 -2183 rmoveto
          hintmask 10100000
          -5 callsubr
          hintmask 11000000
          -15 callgsubr
          vlineto
          endchar
        </CharString>
        <CharString name="ldot">
          -275 688.9799957275391 326 209 callsubr
          254.99998474121094 114 callsubr
          vstem
          197 1664 12 callgsubr
          474.99000549316406 -823.0099945068359 rmoveto
          -88 -77 callsubr
          67.02000427246094 -64 76 hhcurveto
          86 74 callgsubr
          76 99 -3 hvcurveto
          81 -2 -50 70 -95 hhcurveto
          -82.99000549316406 142 callsubr
          -72 callsubr
          -95 2 hvcurveto
          endchar
        </CharString>
        <CharString name="less">
          67 251.99000549316406 1044 hstem
          140 callgsubr
          966 vstem
          1134 1295.990005493164 rmoveto
          -966 -446.00999450683594 rlineto
          58 callsubr
          vlineto
          966 -444 rlineto
          208 vlineto
          -731.0200042724609 313.02000427246094 731.0200042724609 318 rlineto
          205 vlineto
          endchar
        </CharString>
        <CharString name="lessequal">
          67 0 207 callgsubr
          -38 callgsubr
          969.9900054931641 vstem
          1129.979995727539 1280.979995727539 rmoveto
          -970 -431 rlineto
          -155 vlineto
          970 -431 rlineto
          203 vlineto
          -740.9900054931641 306.02000427246094 740.9900054931641 305.99000549316406 rlineto
          202 vlineto
          -970 -1280.979995727539 rmoveto
          212 callgsubr
        </CharString>
</ttFont>
